TranscodeFile.buildPaths> Found tv show file: \\yoda\Backup\To Convert - TV Shows\Weeds\Season 01\Weeds - S01E01 - You Cant Miss The Bear.mkv
buildSRTFileList> searchFile (Weeds - S01E01 - You Cant Miss The Bear.5.srt) matches regex: Weeds - S01E01 - You Cant Miss The Bear(.*).srt
TranscodeFile.buildPaths> Found tv show file: \\yoda\Backup\To Convert - TV Shows\Weeds\Season 01\Weeds - S01E02 - Free Goat.mkv
buildSRTFileList> searchFile (Weeds - S01E02 - Free Goat.4.srt) matches regex: Weeds - S01E02 - Free Goat(.*).srt
TranscodeFile.buildPaths> Found tv show file: \\yoda\Backup\To Convert - TV Shows\Weeds\Season 01\Weeds - S01E03 - Good Shit Lollipop.mkv
buildSRTFileList> searchFile (Weeds - S01E03 - Good Shit Lollipop.5.srt) matches regex: Weeds - S01E03 - Good Shit Lollipop(.*).srt
TranscodeFile.buildPaths> Found tv show file: \\yoda\Backup\To Convert - TV Shows\Weeds\Season 01\Weeds - S01E04 - Fashion Of The Christ.mkv
buildSRTFileList> searchFile (Weeds - S01E04 - Fashion Of The Christ.4.srt) matches regex: Weeds - S01E04 - Fashion Of The Christ(.*).srt
TranscodeFile.buildPaths> Found tv show file: \\yoda\Backup\To Convert - TV Shows\Weeds\Season 01\Weeds - S01E05 - Lude Awakening.mkv
buildSRTFileList> searchFile (Weeds - S01E05 - Lude Awakening.5.srt) matches regex: Weeds - S01E05 - Lude Awakening(.*).srt
TranscodeFile.buildPaths> Found tv show file: \\yoda\Backup\To Convert - TV Shows\Weeds\Season 01\Weeds - S01E06 - Dead In The Nethers.mkv
buildSRTFileList> searchFile (Weeds - S01E06 - Dead In The Nethers.5.srt) matches regex: Weeds - S01E06 - Dead In The Nethers(.*).srt
TranscodeFile.buildPaths> Found tv show file: \\yoda\Backup\To Convert - TV Shows\Weeds\Season 01\Weeds - S01E07 - Higher Education.mkv
buildSRTFileList> searchFile (Weeds - S01E07 - Higher Education.4.srt) matches regex: Weeds - S01E07 - Higher Education(.*).srt
TranscodeFile.buildPaths> Found tv show file: \\yoda\Backup\To Convert - TV Shows\Weeds\Season 01\Weeds - S01E08 - The Punishment Light.mkv
buildSRTFileList> searchFile (Weeds - S01E08 - The Punishment Light.5.srt) matches regex: Weeds - S01E08 - The Punishment Light(.*).srt
TranscodeFile.buildPaths> Found tv show file: \\yoda\Backup\To Convert - TV Shows\Weeds\Season 01\Weeds - S01E09 - The Punishment Lighter.mkv
buildSRTFileList> searchFile (Weeds - S01E09 - The Punishment Lighter.4.srt) matches regex: Weeds - S01E09 - The Punishment Lighter(.*).srt
TranscodeFile.buildPaths> Found tv show file: \\yoda\Backup\To Convert - TV Shows\Weeds\Season 01\Weeds - S01E10 - The Godmother.mkv
buildSRTFileList> searchFile (Weeds - S01E10 - The Godmother.5.srt) matches regex: Weeds - S01E10 - The Godmother(.*).srt
TranscodeFile.buildPaths> Found tv show file: \\yoda\Backup\To Convert - TV Shows\Weeds\Season 02\Weeds - S02E01 - Corn Snake.mkv
buildSRTFileList> searchFile (Weeds - S02E01 - Corn Snake.4.srt) matches regex: Weeds - S02E01 - Corn Snake(.*).srt
TranscodeFile.buildPaths> Found tv show file: \\yoda\Backup\To Convert - TV Shows\Weeds\Season 02\Weeds - S02E02 - Cooking With Jesus.mkv
buildSRTFileList> searchFile (Weeds - S02E02 - Cooking With Jesus.4.srt) matches regex: Weeds - S02E02 - Cooking With Jesus(.*).srt
TranscodeFile.buildPaths> Found tv show file: \\yoda\Backup\To Convert - TV Shows\Weeds\Season 02\Weeds - S02E03 - Last Tango In Agrestic.mkv
buildSRTFileList> searchFile (Weeds - S02E03 - Last Tango In Agrestic.3.srt) matches regex: Weeds - S02E03 - Last Tango In Agrestic(.*).srt
buildSRTFileList> searchFile (Weeds - S02E03 - Last Tango In Agrestic.4.srt) matches regex: Weeds - S02E03 - Last Tango In Agrestic(.*).srt
TranscodeFile.buildPaths> Found tv show file: \\yoda\Backup\To Convert - TV Shows\Weeds\Season 02\Weeds - S02E04 - AKA The Plant.mkv
buildSRTFileList> searchFile (Weeds - S02E04 - AKA The Plant.4.srt) matches regex: Weeds - S02E04 - AKA The Plant(.*).srt
TranscodeFile.buildPaths> Found tv show file: \\yoda\Backup\To Convert - TV Shows\Weeds\Season 02\Weeds - S02E05 - Mrs Botwins Neighborhood.mkv
buildSRTFileList> searchFile (Weeds - S02E05 - Mrs Botwins Neighborhood.3.srt) matches regex: Weeds - S02E05 - Mrs Botwins Neighborhood(.*).srt
buildSRTFileList> searchFile (Weeds - S02E05 - Mrs Botwins Neighborhood.4.srt) matches regex: Weeds - S02E05 - Mrs Botwins Neighborhood(.*).srt
TranscodeFile.buildPaths> Found tv show file: \\yoda\Backup\To Convert - TV Shows\Weeds\Season 02\Weeds - S02E06 - Crush Girl Love Panic.mkv
buildSRTFileList> searchFile (Weeds - S02E06 - Crush Girl Love Panic.3.srt) matches regex: Weeds - S02E06 - Crush Girl Love Panic(.*).srt
buildSRTFileList> searchFile (Weeds - S02E06 - Crush Girl Love Panic.4.srt) matches regex: Weeds - S02E06 - Crush Girl Love Panic(.*).srt
TranscodeFile.buildPaths> Found tv show file: \\yoda\Backup\To Convert - TV Shows\Weeds\Season 02\Weeds - S02E07 - Must Find Toes.mkv
buildSRTFileList> searchFile (Weeds - S02E07 - Must Find Toes.3.srt) matches regex: Weeds - S02E07 - Must Find Toes(.*).srt
TranscodeFile.buildPaths> Found tv show file: \\yoda\Backup\To Convert - TV Shows\Weeds\Season 02\Weeds - S02E08 - MILF Money.mkv
buildSRTFileList> searchFile (Weeds - S02E08 - MILF Money.4.srt) matches regex: Weeds - S02E08 - MILF Money(.*).srt
TranscodeFile.buildPaths> Found tv show file: \\yoda\Backup\To Convert - TV Shows\Weeds\Season 04\Weeds - S04E01 - Mother Thinks The Birds Are After Her.mkv
buildSRTFileList> searchFile (Weeds - S04E01 - Mother Thinks The Birds Are After Her.4.srt) matches regex: Weeds - S04E01 - Mother Thinks The Birds Are After Her(.*).srt
buildSRTFileList> searchFile (Weeds - S04E01 - Mother Thinks The Birds Are After Her.5.srt) matches regex: Weeds - S04E01 - Mother Thinks The Birds Are After Her(.*).srt
TranscodeFile.buildPaths> Found tv show file: \\yoda\Backup\To Convert - TV Shows\Weeds\Season 04\Weeds - S04E02 - Ladys A Charm.mkv
buildSRTFileList> searchFile (Weeds - S04E02 - Ladys A Charm.3.srt) matches regex: Weeds - S04E02 - Ladys A Charm(.*).srt
buildSRTFileList> searchFile (Weeds - S04E02 - Ladys A Charm.4.srt) matches regex: Weeds - S04E02 - Ladys A Charm(.*).srt
TranscodeFile.buildPaths> Found tv show file: \\yoda\Backup\To Convert - TV Shows\Weeds\Season 04\Weeds - S04E03 - The Whole Blah Damn Thing.mkv
buildSRTFileList> searchFile (Weeds - S04E03 - The Whole Blah Damn Thing.3.srt) matches regex: Weeds - S04E03 - The Whole Blah Damn Thing(.*).srt
buildSRTFileList> searchFile (Weeds - S04E03 - The Whole Blah Damn Thing.4.srt) matches regex: Weeds - S04E03 - The Whole Blah Damn Thing(.*).srt
TranscodeFile.buildPaths> Found tv show file: \\yoda\Backup\To Convert - TV Shows\Weeds\Season 04\Weeds - S04E04 - The Three Coolers.mkv
buildSRTFileList> searchFile (Weeds - S04E04 - The Three Coolers.4.srt) matches regex: Weeds - S04E04 - The Three Coolers(.*).srt
buildSRTFileList> searchFile (Weeds - S04E04 - The Three Coolers.5.srt) matches regex: Weeds - S04E04 - The Three Coolers(.*).srt
TranscodeFile.buildPaths> Found tv show file: \\yoda\Backup\To Convert - TV Shows\Weeds\Season 04\Weeds - S04E05 - No Man Is Pudding.mkv
buildSRTFileList> searchFile (Weeds - S04E05 - No Man Is Pudding.5.srt) matches regex: Weeds - S04E05 - No Man Is Pudding(.*).srt
buildSRTFileList> searchFile (Weeds - S04E05 - No Man Is Pudding.6.srt) matches regex: Weeds - S04E05 - No Man Is Pudding(.*).srt
TranscodeFile.buildPaths> Found tv show file: \\yoda\Backup\To Convert - TV Shows\Weeds\Season 04\Weeds - S04E06 - Excellent Treasures.mkv
buildSRTFileList> searchFile (Weeds - S04E06 - Excellent Treasures.4.srt) matches regex: Weeds - S04E06 - Excellent Treasures(.*).srt
buildSRTFileList> searchFile (Weeds - S04E06 - Excellent Treasures.5.srt) matches regex: Weeds - S04E06 - Excellent Treasures(.*).srt
TranscodeFile.buildPaths> Found tv show file: \\yoda\Backup\To Convert - TV Shows\Weeds\Season 04\Weeds - S04E07 - Yes I Can.mkv
buildSRTFileList> searchFile (Weeds - S04E07 - Yes I Can.3.srt) matches regex: Weeds - S04E07 - Yes I Can(.*).srt
buildSRTFileList> searchFile (Weeds - S04E07 - Yes I Can.4.srt) matches regex: Weeds - S04E07 - Yes I Can(.*).srt
TranscodeFile.buildPaths> Found tv show file: \\yoda\Backup\To Convert - TV Shows\Weeds\Season 04\Weeds - S04E08 - I Am The Table.mkv
buildSRTFileList> searchFile (Weeds - S04E08 - I Am The Table.3.srt) matches regex: Weeds - S04E08 - I Am The Table(.*).srt
buildSRTFileList> searchFile (Weeds - S04E08 - I Am The Table.5.srt) matches regex: Weeds - S04E08 - I Am The Table(.*).srt
buildSRTFileList> searchFile (Weeds - S04E08 - I Am The Table.6.srt) matches regex: Weeds - S04E08 - I Am The Table(.*).srt
TranscodeFile.buildPaths> Found tv show file: \\yoda\Backup\To Convert - TV Shows\Weeds\Season 04\Weeds - S04E09 - Little Boats.mkv
buildSRTFileList> searchFile (Weeds - S04E09 - Little Boats.3.srt) matches regex: Weeds - S04E09 - Little Boats(.*).srt
buildSRTFileList> searchFile (Weeds - S04E09 - Little Boats.4.srt) matches regex: Weeds - S04E09 - Little Boats(.*).srt
TranscodeFile.buildPaths> Found tv show file: \\yoda\Backup\To Convert - TV Shows\Weeds\Season 04\Weeds - S04E10 - The Love Circle Overlap.mkv
buildSRTFileList> searchFile (Weeds - S04E10 - The Love Circle Overlap.3.srt) matches regex: Weeds - S04E10 - The Love Circle Overlap(.*).srt
buildSRTFileList> searchFile (Weeds - S04E10 - The Love Circle Overlap.4.srt) matches regex: Weeds - S04E10 - The Love Circle Overlap(.*).srt
TranscodeFile.buildPaths> Found tv show file: \\yoda\Backup\To Convert - TV Shows\Weeds\Season 04\Weeds - S04E101 - Im A Big Kid Now.mkv
TranscodeFile.buildPaths> Found tv show file: \\yoda\Backup\To Convert - TV Shows\Weeds\Season 04\Weeds - S04E102 - Moving Weight.mkv
TranscodeFile.buildPaths> Found tv show file: \\yoda\Backup\To Convert - TV Shows\Weeds\Season 04\Weeds - S04E103 - Gag Reel.mkv
TranscodeFile.buildPaths> Found tv show file: \\yoda\Backup\To Convert - TV Shows\Weeds\Season 04\Weeds - S04E11 - Head Cheese.mkv
buildSRTFileList> searchFile (Weeds - S04E11 - Head Cheese.4.srt) matches regex: Weeds - S04E11 - Head Cheese(.*).srt
buildSRTFileList> searchFile (Weeds - S04E11 - Head Cheese.5.srt) matches regex: Weeds - S04E11 - Head Cheese(.*).srt
TranscodeFile.buildPaths> Found tv show file: \\yoda\Backup\To Convert - TV Shows\Weeds\Season 04\Weeds - S04E12 - Till We Meet Again.mkv
buildSRTFileList> searchFile (Weeds - S04E12 - Till We Meet Again.3.srt) matches regex: Weeds - S04E12 - Till We Meet Again(.*).srt
buildSRTFileList> searchFile (Weeds - S04E12 - Till We Meet Again.4.srt) matches regex: Weeds - S04E12 - Till We Meet Again(.*).srt
TranscodeFile.buildPaths> Found tv show file: \\yoda\Backup\To Convert - TV Shows\Weeds\Season 04\Weeds - S04E13 - If You Work For A Living Then Why Do You Kill Yourself Working.mkv
buildSRTFileList> searchFile (Weeds - S04E13 - If You Work For A Living Then Why Do You Kill Yourself Working.4.srt) matches regex: Weeds - S04E13 - If You Work For A Living Then Why Do You Kill Yourself Working(.*).srt
buildSRTFileList> searchFile (Weeds - S04E13 - If You Work For A Living Then Why Do You Kill Yourself Working.5.srt) matches regex: Weeds - S04E13 - If You Work For A Living Then Why Do You Kill Yourself Working(.*).srt
TranscodeFile> theMP4FileName: Weeds - S04E103 - Gag Reel.mp4, mkvFinalDirectory: \\yoda\MKV_Archive9\TV Shows\Weeds\Season 04\, mp4OutputDirectory: D:\Temp\Weeds\Season 04\, mp4FinalDirectory: \\yoda\MP4_4\TV Shows\Weeds\Season 04\, length: 1082773608
TranscodeFile> theMP4FileName: Weeds - S04E102 - Moving Weight.mp4, mkvFinalDirectory: \\yoda\MKV_Archive9\TV Shows\Weeds\Season 04\, mp4OutputDirectory: D:\Temp\Weeds\Season 04\, mp4FinalDirectory: \\yoda\MP4_4\TV Shows\Weeds\Season 04\, length: 1217604651
TranscodeFile> theMP4FileName: Weeds - S04E101 - Im A Big Kid Now.mp4, mkvFinalDirectory: \\yoda\MKV_Archive9\TV Shows\Weeds\Season 04\, mp4OutputDirectory: D:\Temp\Weeds\Season 04\, mp4FinalDirectory: \\yoda\MP4_4\TV Shows\Weeds\Season 04\, length: 1233555627
TranscodeFile> theMP4FileName: Weeds - S01E04 - Fashion Of The Christ.mp4, mkvFinalDirectory: \\yoda\MKV_Archive9\TV Shows\Weeds\Season 01\, mp4OutputDirectory: D:\Temp\Weeds\Season 01\, mp4FinalDirectory: \\yoda\MP4_4\TV Shows\Weeds\Season 01\, length: 3745916261
TranscodeFile> theMP4FileName: Weeds - S01E07 - Higher Education.mp4, mkvFinalDirectory: \\yoda\MKV_Archive9\TV Shows\Weeds\Season 01\, mp4OutputDirectory: D:\Temp\Weeds\Season 01\, mp4FinalDirectory: \\yoda\MP4_4\TV Shows\Weeds\Season 01\, length: 3764797004
TranscodeFile> theMP4FileName: Weeds - S01E08 - The Punishment Light.mp4, mkvFinalDirectory: \\yoda\MKV_Archive9\TV Shows\Weeds\Season 01\, mp4OutputDirectory: D:\Temp\Weeds\Season 01\, mp4FinalDirectory: \\yoda\MP4_4\TV Shows\Weeds\Season 01\, length: 3779599320
TranscodeFile> theMP4FileName: Weeds - S01E09 - The Punishment Lighter.mp4, mkvFinalDirectory: \\yoda\MKV_Archive9\TV Shows\Weeds\Season 01\, mp4OutputDirectory: D:\Temp\Weeds\Season 01\, mp4FinalDirectory: \\yoda\MP4_4\TV Shows\Weeds\Season 01\, length: 3795359843
TranscodeFile> theMP4FileName: Weeds - S01E05 - Lude Awakening.mp4, mkvFinalDirectory: \\yoda\MKV_Archive9\TV Shows\Weeds\Season 01\, mp4OutputDirectory: D:\Temp\Weeds\Season 01\, mp4FinalDirectory: \\yoda\MP4_4\TV Shows\Weeds\Season 01\, length: 3824502990
TranscodeFile> theMP4FileName: Weeds - S01E06 - Dead In The Nethers.mp4, mkvFinalDirectory: \\yoda\MKV_Archive9\TV Shows\Weeds\Season 01\, mp4OutputDirectory: D:\Temp\Weeds\Season 01\, mp4FinalDirectory: \\yoda\MP4_4\TV Shows\Weeds\Season 01\, length: 3880167388
TranscodeFile> theMP4FileName: Weeds - S02E07 - Must Find Toes.mp4, mkvFinalDirectory: \\yoda\MKV_Archive9\TV Shows\Weeds\Season 02\, mp4OutputDirectory: D:\Temp\Weeds\Season 02\, mp4FinalDirectory: \\yoda\MP4_4\TV Shows\Weeds\Season 02\, length: 4008124546
TranscodeFile> theMP4FileName: Weeds - S02E03 - Last Tango In Agrestic.mp4, mkvFinalDirectory: \\yoda\MKV_Archive9\TV Shows\Weeds\Season 02\, mp4OutputDirectory: D:\Temp\Weeds\Season 02\, mp4FinalDirectory: \\yoda\MP4_4\TV Shows\Weeds\Season 02\, length: 4083027363
TranscodeFile> theMP4FileName: Weeds - S02E08 - MILF Money.mp4, mkvFinalDirectory: \\yoda\MKV_Archive9\TV Shows\Weeds\Season 02\, mp4OutputDirectory: D:\Temp\Weeds\Season 02\, mp4FinalDirectory: \\yoda\MP4_4\TV Shows\Weeds\Season 02\, length: 4197752002
TranscodeFile> theMP4FileName: Weeds - S01E02 - Free Goat.mp4, mkvFinalDirectory: \\yoda\MKV_Archive9\TV Shows\Weeds\Season 01\, mp4OutputDirectory: D:\Temp\Weeds\Season 01\, mp4FinalDirectory: \\yoda\MP4_4\TV Shows\Weeds\Season 01\, length: 4231345525
TranscodeFile> theMP4FileName: Weeds - S01E10 - The Godmother.mp4, mkvFinalDirectory: \\yoda\MKV_Archive9\TV Shows\Weeds\Season 01\, mp4OutputDirectory: D:\Temp\Weeds\Season 01\, mp4FinalDirectory: \\yoda\MP4_4\TV Shows\Weeds\Season 01\, length: 4236767145
TranscodeFile> theMP4FileName: Weeds - S01E03 - Good Shit Lollipop.mp4, mkvFinalDirectory: \\yoda\MKV_Archive9\TV Shows\Weeds\Season 01\, mp4OutputDirectory: D:\Temp\Weeds\Season 01\, mp4FinalDirectory: \\yoda\MP4_4\TV Shows\Weeds\Season 01\, length: 4237344307
TranscodeFile> theMP4FileName: Weeds - S02E05 - Mrs Botwins Neighborhood.mp4, mkvFinalDirectory: \\yoda\MKV_Archive9\TV Shows\Weeds\Season 02\, mp4OutputDirectory: D:\Temp\Weeds\Season 02\, mp4FinalDirectory: \\yoda\MP4_4\TV Shows\Weeds\Season 02\, length: 4251756568
TranscodeFile> theMP4FileName: Weeds - S02E06 - Crush Girl Love Panic.mp4, mkvFinalDirectory: \\yoda\MKV_Archive9\TV Shows\Weeds\Season 02\, mp4OutputDirectory: D:\Temp\Weeds\Season 02\, mp4FinalDirectory: \\yoda\MP4_4\TV Shows\Weeds\Season 02\, length: 4406891577
TranscodeFile> theMP4FileName: Weeds - S02E01 - Corn Snake.mp4, mkvFinalDirectory: \\yoda\MKV_Archive9\TV Shows\Weeds\Season 02\, mp4OutputDirectory: D:\Temp\Weeds\Season 02\, mp4FinalDirectory: \\yoda\MP4_4\TV Shows\Weeds\Season 02\, length: 4444142977
TranscodeFile> theMP4FileName: Weeds - S01E01 - You Cant Miss The Bear.mp4, mkvFinalDirectory: \\yoda\MKV_Archive9\TV Shows\Weeds\Season 01\, mp4OutputDirectory: D:\Temp\Weeds\Season 01\, mp4FinalDirectory: \\yoda\MP4_4\TV Shows\Weeds\Season 01\, length: 4486115839
TranscodeFile> theMP4FileName: Weeds - S02E04 - AKA The Plant.mp4, mkvFinalDirectory: \\yoda\MKV_Archive9\TV Shows\Weeds\Season 02\, mp4OutputDirectory: D:\Temp\Weeds\Season 02\, mp4FinalDirectory: \\yoda\MP4_4\TV Shows\Weeds\Season 02\, length: 4546539054
TranscodeFile> theMP4FileName: Weeds - S02E02 - Cooking With Jesus.mp4, mkvFinalDirectory: \\yoda\MKV_Archive9\TV Shows\Weeds\Season 02\, mp4OutputDirectory: D:\Temp\Weeds\Season 02\, mp4FinalDirectory: \\yoda\MP4_4\TV Shows\Weeds\Season 02\, length: 4595576027
TranscodeFile> theMP4FileName: Weeds - S04E06 - Excellent Treasures.mp4, mkvFinalDirectory: \\yoda\MKV_Archive9\TV Shows\Weeds\Season 04\, mp4OutputDirectory: D:\Temp\Weeds\Season 04\, mp4FinalDirectory: \\yoda\MP4_4\TV Shows\Weeds\Season 04\, length: 4862660130
TranscodeFile> theMP4FileName: Weeds - S04E07 - Yes I Can.mp4, mkvFinalDirectory: \\yoda\MKV_Archive9\TV Shows\Weeds\Season 04\, mp4OutputDirectory: D:\Temp\Weeds\Season 04\, mp4FinalDirectory: \\yoda\MP4_4\TV Shows\Weeds\Season 04\, length: 4994952293
TranscodeFile> theMP4FileName: Weeds - S04E02 - Ladys A Charm.mp4, mkvFinalDirectory: \\yoda\MKV_Archive9\TV Shows\Weeds\Season 04\, mp4OutputDirectory: D:\Temp\Weeds\Season 04\, mp4FinalDirectory: \\yoda\MP4_4\TV Shows\Weeds\Season 04\, length: 5199515338
TranscodeFile> theMP4FileName: Weeds - S04E01 - Mother Thinks The Birds Are After Her.mp4, mkvFinalDirectory: \\yoda\MKV_Archive9\TV Shows\Weeds\Season 04\, mp4OutputDirectory: D:\Temp\Weeds\Season 04\, mp4FinalDirectory: \\yoda\MP4_4\TV Shows\Weeds\Season 04\, length: 5203507169
TranscodeFile> theMP4FileName: Weeds - S04E05 - No Man Is Pudding.mp4, mkvFinalDirectory: \\yoda\MKV_Archive9\TV Shows\Weeds\Season 04\, mp4OutputDirectory: D:\Temp\Weeds\Season 04\, mp4FinalDirectory: \\yoda\MP4_4\TV Shows\Weeds\Season 04\, length: 5237328003
TranscodeFile> theMP4FileName: Weeds - S04E03 - The Whole Blah Damn Thing.mp4, mkvFinalDirectory: \\yoda\MKV_Archive9\TV Shows\Weeds\Season 04\, mp4OutputDirectory: D:\Temp\Weeds\Season 04\, mp4FinalDirectory: \\yoda\MP4_4\TV Shows\Weeds\Season 04\, length: 5241857078
TranscodeFile> theMP4FileName: Weeds - S04E04 - The Three Coolers.mp4, mkvFinalDirectory: \\yoda\MKV_Archive9\TV Shows\Weeds\Season 04\, mp4OutputDirectory: D:\Temp\Weeds\Season 04\, mp4FinalDirectory: \\yoda\MP4_4\TV Shows\Weeds\Season 04\, length: 5256960108
TranscodeFile> theMP4FileName: Weeds - S04E12 - Till We Meet Again.mp4, mkvFinalDirectory: \\yoda\MKV_Archive9\TV Shows\Weeds\Season 04\, mp4OutputDirectory: D:\Temp\Weeds\Season 04\, mp4FinalDirectory: \\yoda\MP4_4\TV Shows\Weeds\Season 04\, length: 5751587015
TranscodeFile> theMP4FileName: Weeds - S04E11 - Head Cheese.mp4, mkvFinalDirectory: \\yoda\MKV_Archive9\TV Shows\Weeds\Season 04\, mp4OutputDirectory: D:\Temp\Weeds\Season 04\, mp4FinalDirectory: \\yoda\MP4_4\TV Shows\Weeds\Season 04\, length: 6011702194
TranscodeFile> theMP4FileName: Weeds - S04E10 - The Love Circle Overlap.mp4, mkvFinalDirectory: \\yoda\MKV_Archive9\TV Shows\Weeds\Season 04\, mp4OutputDirectory: D:\Temp\Weeds\Season 04\, mp4FinalDirectory: \\yoda\MP4_4\TV Shows\Weeds\Season 04\, length: 6048213638
TranscodeFile> theMP4FileName: Weeds - S04E09 - Little Boats.mp4, mkvFinalDirectory: \\yoda\MKV_Archive9\TV Shows\Weeds\Season 04\, mp4OutputDirectory: D:\Temp\Weeds\Season 04\, mp4FinalDirectory: \\yoda\MP4_4\TV Shows\Weeds\Season 04\, length: 6062048660
TranscodeFile> theMP4FileName: Weeds - S04E13 - If You Work For A Living Then Why Do You Kill Yourself Working.mp4, mkvFinalDirectory: \\yoda\MKV_Archive9\TV Shows\Weeds\Season 04\, mp4OutputDirectory: D:\Temp\Weeds\Season 04\, mp4FinalDirectory: \\yoda\MP4_4\TV Shows\Weeds\Season 04\, length: 6314018354
TranscodeFile> theMP4FileName: Weeds - S04E08 - I Am The Table.mp4, mkvFinalDirectory: \\yoda\MKV_Archive9\TV Shows\Weeds\Season 04\, mp4OutputDirectory: D:\Temp\Weeds\Season 04\, mp4FinalDirectory: \\yoda\MP4_4\TV Shows\Weeds\Season 04\, length: 7320394784
processFile> Processing: Weeds - S04E103 - Gag Reel.mkv
processFile> Execute ffprobe command: "D:\Program Files\ffmpeg\bin\ffprobe" -v quiet -show_streams -print_format json -i "\\yoda\Backup\To Convert - TV Shows\Weeds\Season 04\Weeds - S04E103 - Gag Reel.mkv"
processFile:1> {
processFile:2>     "streams": [
processFile:3>         {
processFile:4>             "index": 0,
processFile:5>             "codec_name": "h264",
processFile:6>             "codec_long_name": "H.264 / AVC / MPEG-4 AVC / MPEG-4 part 10",
processFile:7>             "profile": "High",
processFile:8>             "codec_type": "video",
processFile:9>             "codec_tag_string": "[0][0][0][0]",
processFile:10>             "codec_tag": "0x0000",
processFile:11>             "width": 1920,
processFile:12>             "height": 1080,
processFile:13>             "coded_width": 1920,
processFile:14>             "coded_height": 1080,
processFile:15>             "closed_captions": 0,
processFile:16>             "film_grain": 0,
processFile:17>             "has_b_frames": 4,
processFile:18>             "sample_aspect_ratio": "1:1",
processFile:19>             "display_aspect_ratio": "16:9",
processFile:20>             "pix_fmt": "yuv420p",
processFile:21>             "level": 41,
processFile:22>             "color_range": "tv",
processFile:23>             "color_space": "bt709",
processFile:24>             "color_transfer": "bt709",
processFile:25>             "color_primaries": "bt709",
processFile:26>             "chroma_location": "left",
processFile:27>             "field_order": "progressive",
processFile:28>             "refs": 1,
processFile:29>             "is_avc": "true",
processFile:30>             "nal_length_size": "4",
processFile:31>             "r_frame_rate": "24000/1001",
processFile:32>             "avg_frame_rate": "24000/1001",
processFile:33>             "time_base": "1/1000",
processFile:34>             "start_pts": 0,
processFile:35>             "start_time": "0.000000",
processFile:36>             "bits_per_raw_sample": "8",
processFile:37>             "extradata_size": 123,
processFile:38>             "disposition": {
processFile:39>                 "default": 0,
processFile:40>                 "dub": 0,
processFile:41>                 "original": 0,
processFile:42>                 "comment": 0,
processFile:43>                 "lyrics": 0,
processFile:44>                 "karaoke": 0,
processFile:45>                 "forced": 0,
processFile:46>                 "hearing_impaired": 0,
processFile:47>                 "visual_impaired": 0,
processFile:48>                 "clean_effects": 0,
processFile:49>                 "attached_pic": 0,
processFile:50>                 "timed_thumbnails": 0,
processFile:51>                 "captions": 0,
processFile:52>                 "descriptions": 0,
processFile:53>                 "metadata": 0,
processFile:54>                 "dependent": 0,
processFile:55>                 "still_image": 0
processFile:56>             },
processFile:57>             "tags": {
processFile:58>                 "language": "eng",
processFile:59>                 "BPS-eng": "16939692",
processFile:60>                 "DURATION-eng": "00:08:25.546708333",
processFile:61>                 "NUMBER_OF_FRAMES-eng": "12121",
processFile:62>                 "NUMBER_OF_BYTES-eng": "1070474241",
processFile:63>                 "SOURCE_ID-eng": "001011",
processFile:64>                 "_STATISTICS_WRITING_APP-eng": "MakeMKV v1.17.2 win(x64-release)",
processFile:65>                 "_STATISTICS_WRITING_DATE_UTC-eng": "2022-12-17 15:02:51",
processFile:66>                 "_STATISTICS_TAGS-eng": "BPS DURATION NUMBER_OF_FRAMES NUMBER_OF_BYTES SOURCE_ID"
processFile:67>             }
processFile:68>         },
processFile:69>         {
processFile:70>             "index": 1,
processFile:71>             "codec_name": "ac3",
processFile:72>             "codec_long_name": "ATSC A/52A (AC-3)",
processFile:73>             "codec_type": "audio",
processFile:74>             "codec_tag_string": "[0][0][0][0]",
processFile:75>             "codec_tag": "0x0000",
processFile:76>             "sample_fmt": "fltp",
processFile:77>             "sample_rate": "48000",
processFile:78>             "channels": 2,
processFile:79>             "channel_layout": "stereo",
processFile:80>             "bits_per_sample": 0,
processFile:81>             "r_frame_rate": "0/0",
processFile:82>             "avg_frame_rate": "0/0",
processFile:83>             "time_base": "1/1000",
processFile:84>             "start_pts": 0,
processFile:85>             "start_time": "0.000000",
processFile:86>             "bit_rate": "192000",
processFile:87>             "disposition": {
processFile:88>                 "default": 1,
processFile:89>                 "dub": 0,
processFile:90>                 "original": 0,
processFile:91>                 "comment": 0,
processFile:92>                 "lyrics": 0,
processFile:93>                 "karaoke": 0,
processFile:94>                 "forced": 0,
processFile:95>                 "hearing_impaired": 0,
processFile:96>                 "visual_impaired": 0,
processFile:97>                 "clean_effects": 0,
processFile:98>                 "attached_pic": 0,
processFile:99>                 "timed_thumbnails": 0,
processFile:100>                 "captions": 0,
processFile:101>                 "descriptions": 0,
processFile:102>                 "metadata": 0,
processFile:103>                 "dependent": 0,
processFile:104>                 "still_image": 0
processFile:105>             },
processFile:106>             "tags": {
processFile:107>                 "language": "eng",
processFile:108>                 "title": "Stereo",
processFile:109>                 "BPS-eng": "192000",
processFile:110>                 "DURATION-eng": "00:08:25.568000000",
processFile:111>                 "NUMBER_OF_FRAMES-eng": "15799",
processFile:112>                 "NUMBER_OF_BYTES-eng": "12133632",
processFile:113>                 "SOURCE_ID-eng": "001100",
processFile:114>                 "_STATISTICS_WRITING_APP-eng": "MakeMKV v1.17.2 win(x64-release)",
processFile:115>                 "_STATISTICS_WRITING_DATE_UTC-eng": "2022-12-17 15:02:51",
processFile:116>                 "_STATISTICS_TAGS-eng": "BPS DURATION NUMBER_OF_FRAMES NUMBER_OF_BYTES SOURCE_ID"
processFile:117>             }
processFile:118>         }
processFile:119>     ]
processFile:120> }
setTranscodeStatus(.in_work)> Touching file: \\yoda\Backup\To Convert - TV Shows\Weeds\Season 04\Weeds - S04E103 - Gag Reel.in_work
setTranscodeStatus(.in_work)> Touching file: D:\Temp\Weeds\Season 04\Weeds - S04E103 - Gag Reel.in_work
transcodeFile> Transcoding: TranscodeFile> theMP4FileName: Weeds - S04E103 - Gag Reel.mp4, mkvFinalDirectory: \\yoda\MKV_Archive9\TV Shows\Weeds\Season 04\, mp4OutputDirectory: D:\Temp\Weeds\Season 04\, mp4FinalDirectory: \\yoda\MP4_4\TV Shows\Weeds\Season 04\, length: 1082773608
"D:\Program Files\ffmpeg\bin\ffmpeg" -y -i "\\yoda\Backup\To Convert - TV Shows\Weeds\Season 04\Weeds - S04E103 - Gag Reel.mkv" -map 0 -vf yadif=1 -vcodec libx264 -crf 17 -movflags +faststart -metadata title="Gag Reel" "D:\Temp\Weeds\Season 04\Weeds - S04E103 - Gag Reel.mp4"
executeCommand> "D:\Program Files\ffmpeg\bin\ffmpeg" -y -i "\\yoda\Backup\To Convert - TV Shows\Weeds\Season 04\Weeds - S04E103 - Gag Reel.mkv" -map 0 -vf yadif=1 -vcodec libx264 -crf 17 -movflags +faststart -metadata title="Gag Reel" "D:\Temp\Weeds\Season 04\Weeds - S04E103 - Gag Reel.mp4"
executeCommand> ErrorStream: ffmpeg version 5.1.2-essentials_build-www.gyan.dev Copyright (c) 2000-2022 the FFmpeg developers
executeCommand> ErrorStream:   built with gcc 12.1.0 (Rev2, Built by MSYS2 project)
executeCommand> ErrorStream:   configuration: --enable-gpl --enable-version3 --enable-static --disable-w32threads --disable-autodetect --enable-fontconfig --enable-iconv --enable-gnutls --enable-libxml2 --enable-gmp --enable-lzma --enable-zlib --enable-libsrt --enable-libssh --enable-libzmq --enable-avisynth --enable-sdl2 --enable-libwebp --enable-libx264 --enable-libx265 --enable-libxvid --enable-libaom --enable-libopenjpeg --enable-libvpx --enable-libass --enable-libfreetype --enable-libfribidi --enable-libvidstab --enable-libvmaf --enable-libzimg --enable-amf --enable-cuda-llvm --enable-cuvid --enable-ffnvcodec --enable-nvdec --enable-nvenc --enable-d3d11va --enable-dxva2 --enable-libmfx --enable-libgme --enable-libopenmpt --enable-libopencore-amrwb --enable-libmp3lame --enable-libtheora --enable-libvo-amrwbenc --enable-libgsm --enable-libopencore-amrnb --enable-libopus --enable-libspeex --enable-libvorbis --enable-librubberband
executeCommand> ErrorStream:   libavutil      57. 28.100 / 57. 28.100
executeCommand> ErrorStream:   libavcodec     59. 37.100 / 59. 37.100
executeCommand> ErrorStream:   libavformat    59. 27.100 / 59. 27.100
executeCommand> ErrorStream:   libavdevice    59.  7.100 / 59.  7.100
executeCommand> ErrorStream:   libavfilter     8. 44.100 /  8. 44.100
executeCommand> ErrorStream:   libswscale      6.  7.100 /  6.  7.100
executeCommand> ErrorStream:   libswresample   4.  7.100 /  4.  7.100
executeCommand> ErrorStream:   libpostproc    56.  6.100 / 56.  6.100
executeCommand> ErrorStream: Input #0, matroska,webm, from '\\yoda\Backup\To Convert - TV Shows\Weeds\Season 04\Weeds - S04E103 - Gag Reel.mkv':
executeCommand> ErrorStream:   Metadata:
executeCommand> ErrorStream:     title           : Weeds Season 4
executeCommand> ErrorStream:     encoder         : libmakemkv v1.17.2 (1.3.10/1.5.2) win(x64-release)
executeCommand> ErrorStream:     creation_time   : 2022-12-17T15:02:51.000000Z
executeCommand> ErrorStream:   Duration: 00:08:25.55, start: 0.000000, bitrate: 17134 kb/s
executeCommand> ErrorStream:   Stream #0:0(eng): Video: h264 (High), yuv420p(tv, bt709, progressive), 1920x1080 [SAR 1:1 DAR 16:9], 23.98 fps, 23.98 tbr, 1k tbn
executeCommand> ErrorStream:     Metadata:
executeCommand> ErrorStream:       BPS-eng         : 16939692
executeCommand> ErrorStream:       DURATION-eng    : 00:08:25.546708333
executeCommand> ErrorStream:       NUMBER_OF_FRAMES-eng: 12121
executeCommand> ErrorStream:       NUMBER_OF_BYTES-eng: 1070474241
executeCommand> ErrorStream:       SOURCE_ID-eng   : 001011
executeCommand> ErrorStream:       _STATISTICS_WRITING_APP-eng: MakeMKV v1.17.2 win(x64-release)
executeCommand> ErrorStream:       _STATISTICS_WRITING_DATE_UTC-eng: 2022-12-17 15:02:51
executeCommand> ErrorStream:       _STATISTICS_TAGS-eng: BPS DURATION NUMBER_OF_FRAMES NUMBER_OF_BYTES SOURCE_ID
executeCommand> ErrorStream:   Stream #0:1(eng): Audio: ac3, 48000 Hz, stereo, fltp, 192 kb/s (default)
executeCommand> ErrorStream:     Metadata:
executeCommand> ErrorStream:       title           : Stereo
executeCommand> ErrorStream:       BPS-eng         : 192000
executeCommand> ErrorStream:       DURATION-eng    : 00:08:25.568000000
executeCommand> ErrorStream:       NUMBER_OF_FRAMES-eng: 15799
executeCommand> ErrorStream:       NUMBER_OF_BYTES-eng: 12133632
executeCommand> ErrorStream:       SOURCE_ID-eng   : 001100
executeCommand> ErrorStream:       _STATISTICS_WRITING_APP-eng: MakeMKV v1.17.2 win(x64-release)
executeCommand> ErrorStream:       _STATISTICS_WRITING_DATE_UTC-eng: 2022-12-17 15:02:51
executeCommand> ErrorStream:       _STATISTICS_TAGS-eng: BPS DURATION NUMBER_OF_FRAMES NUMBER_OF_BYTES SOURCE_ID
executeCommand> ErrorStream: Stream mapping:
executeCommand> ErrorStream:   Stream #0:0 -> #0:0 (h264 (native) -> h264 (libx264))
executeCommand> ErrorStream:   Stream #0:1 -> #0:1 (ac3 (native) -> aac (native))
executeCommand> ErrorStream: Press [q] to stop, [?] for help
executeCommand> ErrorStream: [libx264 @ 0000019fb965e440] using SAR=1/1
executeCommand> ErrorStream: [libx264 @ 0000019fb965e440] using cpu capabilities: MMX2 SSE2Fast SSSE3 SSE4.2 AVX FMA3 BMI2 AVX2
executeCommand> ErrorStream: [libx264 @ 0000019fb965e440] profile High, level 4.2, 4:2:0, 8-bit
executeCommand> ErrorStream: [libx264 @ 0000019fb965e440] 264 - core 164 r3099 e067ab0 - H.264/MPEG-4 AVC codec - Copyleft 2003-2022 - http://www.videolan.org/x264.html - options: cabac=1 ref=3 deblock=1:0:0 analyse=0x3:0x113 me=hex subme=7 psy=1 psy_rd=1.00:0.00 mixed_ref=1 me_range=16 chroma_me=1 trellis=1 8x8dct=1 cqm=0 deadzone=21,11 fast_pskip=1 chroma_qp_offset=-2 threads=12 lookahead_threads=2 sliced_threads=0 nr=0 decimate=1 interlaced=0 bluray_compat=0 constrained_intra=0 bframes=3 b_pyramid=2 b_adapt=1 b_bias=0 direct=1 weightb=1 open_gop=0 weightp=2 keyint=250 keyint_min=25 scenecut=40 intra_refresh=0 rc_lookahead=40 rc=crf mbtree=1 crf=17.0 qcomp=0.60 qpmin=0 qpmax=69 qpstep=4 ip_ratio=1.40 aq=1:1.00
executeCommand> ErrorStream: Output #0, mp4, to 'D:\Temp\Weeds\Season 04\Weeds - S04E103 - Gag Reel.mp4':
executeCommand> ErrorStream:   Metadata:
executeCommand> ErrorStream:     title           : Gag Reel
executeCommand> ErrorStream:     encoder         : Lavf59.27.100
executeCommand> ErrorStream:   Stream #0:0(eng): Video: h264 (avc1 / 0x31637661), yuv420p(tv, bt709, progressive), 1920x1080 [SAR 1:1 DAR 16:9], q=2-31, 47.95 fps, 48k tbn
executeCommand> ErrorStream:     Metadata:
executeCommand> ErrorStream:       BPS-eng         : 16939692
executeCommand> ErrorStream:       DURATION-eng    : 00:08:25.546708333
executeCommand> ErrorStream:       NUMBER_OF_FRAMES-eng: 12121
executeCommand> ErrorStream:       NUMBER_OF_BYTES-eng: 1070474241
executeCommand> ErrorStream:       SOURCE_ID-eng   : 001011
executeCommand> ErrorStream:       _STATISTICS_WRITING_APP-eng: MakeMKV v1.17.2 win(x64-release)
executeCommand> ErrorStream:       _STATISTICS_WRITING_DATE_UTC-eng: 2022-12-17 15:02:51
executeCommand> ErrorStream:       _STATISTICS_TAGS-eng: BPS DURATION NUMBER_OF_FRAMES NUMBER_OF_BYTES SOURCE_ID
executeCommand> ErrorStream:       encoder         : Lavc59.37.100 libx264
executeCommand> ErrorStream:     Side data:
executeCommand> ErrorStream:       cpb: bitrate max/min/avg: 0/0/0 buffer size: 0 vbv_delay: N/A
executeCommand> ErrorStream:   Stream #0:1(eng): Audio: aac (LC) (mp4a / 0x6134706D), 48000 Hz, stereo, fltp, 128 kb/s (default)
executeCommand> ErrorStream:     Metadata:
executeCommand> ErrorStream:       title           : Stereo
executeCommand> ErrorStream:       BPS-eng         : 192000
executeCommand> ErrorStream:       DURATION-eng    : 00:08:25.568000000
executeCommand> ErrorStream:       NUMBER_OF_FRAMES-eng: 15799
executeCommand> ErrorStream:       NUMBER_OF_BYTES-eng: 12133632
executeCommand> ErrorStream:       SOURCE_ID-eng   : 001100
executeCommand> ErrorStream:       _STATISTICS_WRITING_APP-eng: MakeMKV v1.17.2 win(x64-release)
executeCommand> ErrorStream:       _STATISTICS_WRITING_DATE_UTC-eng: 2022-12-17 15:02:51
executeCommand> ErrorStream:       _STATISTICS_TAGS-eng: BPS DURATION NUMBER_OF_FRAMES NUMBER_OF_BYTES SOURCE_ID
executeCommand> ErrorStream:       encoder         : Lavc59.37.100 aac
executeCommand> ErrorStream: frame=    1 fps=0.0 q=0.0 size=       0kB time=00:00:00.49 bitrate=   0.8kbits/s speed=  11x    
executeCommand> ErrorStream: frame=   58 fps=0.0 q=25.0 size=       0kB time=00:00:01.70 bitrate=   0.2kbits/s speed=3.13x    
executeCommand> ErrorStream: frame=  104 fps= 96 q=25.0 size=       0kB time=00:00:02.60 bitrate=   0.1kbits/s speed= 2.4x    
executeCommand> ErrorStream: frame=  118 fps= 70 q=25.0 size=     512kB time=00:00:02.92 bitrate=1435.2kbits/s speed=1.73x    
executeCommand> ErrorStream: frame=  135 fps= 58 q=25.0 size=     768kB time=00:00:03.22 bitrate=1953.2kbits/s speed=1.39x    
executeCommand> ErrorStream: frame=  151 fps= 54 q=25.0 size=    1280kB time=00:00:03.60 bitrate=2908.5kbits/s speed=1.28x    
executeCommand> ErrorStream: frame=  166 fps= 48 q=25.0 size=    1792kB time=00:00:03.92 bitrate=3739.9kbits/s speed=1.14x    
executeCommand> ErrorStream: frame=  182 fps= 45 q=25.0 size=    2048kB time=00:00:04.24 bitrate=3952.0kbits/s speed=1.06x    
executeCommand> ErrorStream: frame=  198 fps= 44 q=25.0 size=    2560kB time=00:00:04.58 bitrate=4572.4kbits/s speed=1.01x    
executeCommand> ErrorStream: frame=  213 fps= 42 q=25.0 size=    2816kB time=00:00:04.88 bitrate=4722.1kbits/s speed=0.971x    
executeCommand> ErrorStream: frame=  226 fps= 40 q=25.0 size=    3328kB time=00:00:05.16 bitrate=5280.9kbits/s speed=0.918x    
executeCommand> ErrorStream: frame=  243 fps= 39 q=25.0 size=    3584kB time=00:00:05.52 bitrate=5313.8kbits/s speed=0.89x    
executeCommand> ErrorStream: frame=  258 fps= 38 q=25.0 size=    4096kB time=00:00:05.80 bitrate=5782.7kbits/s speed=0.864x    
executeCommand> ErrorStream: frame=  274 fps= 37 q=25.0 size=    4352kB time=00:00:06.16 bitrate=5782.7kbits/s speed=0.838x    
executeCommand> ErrorStream: frame=  291 fps= 36 q=25.0 size=    4864kB time=00:00:06.50 bitrate=6123.9kbits/s speed=0.814x    
executeCommand> ErrorStream: frame=  309 fps= 36 q=25.0 size=    5376kB time=00:00:06.89 bitrate=6391.3kbits/s speed=0.797x    
executeCommand> ErrorStream: frame=  325 fps= 35 q=25.0 size=    5888kB time=00:00:07.21 bitrate=6689.4kbits/s speed=0.787x    
executeCommand> ErrorStream: frame=  340 fps= 35 q=25.0 size=    6144kB time=00:00:07.53 bitrate=6683.6kbits/s speed=0.777x    
executeCommand> ErrorStream: frame=  357 fps= 35 q=25.0 size=    6656kB time=00:00:07.89 bitrate=6907.9kbits/s speed=0.763x    
executeCommand> ErrorStream: frame=  373 fps= 34 q=25.0 size=    6912kB time=00:00:08.21 bitrate=6894.1kbits/s speed=0.756x    
executeCommand> ErrorStream: frame=  388 fps= 34 q=25.0 size=    7168kB time=00:00:08.53 bitrate=6881.3kbits/s speed=0.751x    
executeCommand> ErrorStream: frame=  405 fps= 34 q=25.0 size=    7680kB time=00:00:08.87 bitrate=7089.3kbits/s speed=0.735x    
executeCommand> ErrorStream: frame=  422 fps= 33 q=25.0 size=    7936kB time=00:00:09.23 bitrate=7038.0kbits/s speed=0.733x    
executeCommand> ErrorStream: frame=  439 fps= 33 q=25.0 size=    8448kB time=00:00:09.62 bitrate=7193.0kbits/s speed=0.734x    
executeCommand> ErrorStream: frame=  452 fps= 33 q=25.0 size=    8704kB time=00:00:09.83 bitrate=7250.2kbits/s speed=0.716x    
executeCommand> ErrorStream: frame=  470 fps= 33 q=25.0 size=    9216kB time=00:00:10.21 bitrate=7388.2kbits/s speed=0.717x    
executeCommand> ErrorStream: frame=  484 fps= 33 q=25.0 size=    9472kB time=00:00:10.53 bitrate=7362.9kbits/s speed=0.71x    
executeCommand> ErrorStream: frame=  501 fps= 32 q=25.0 size=    9728kB time=00:00:10.90 bitrate=7310.3kbits/s speed=0.705x    
executeCommand> ErrorStream: frame=  517 fps= 32 q=25.0 size=   10240kB time=00:00:11.22 bitrate=7475.6kbits/s speed= 0.7x    
executeCommand> ErrorStream: frame=  532 fps= 32 q=25.0 size=   10752kB time=00:00:11.54 bitrate=7631.8kbits/s speed=0.697x    
executeCommand> ErrorStream: frame=  549 fps= 32 q=25.0 size=   11008kB time=00:00:11.88 bitrate=7589.0kbits/s speed=0.695x    
executeCommand> ErrorStream: frame=  554 fps= 31 q=25.0 size=   11264kB time=00:00:12.01 bitrate=7682.8kbits/s speed=0.682x    
executeCommand> ErrorStream: frame=  565 fps= 31 q=25.0 size=   11520kB time=00:00:12.20 bitrate=7733.7kbits/s speed=0.672x    
executeCommand> ErrorStream: frame=  577 fps= 31 q=25.0 size=   11776kB time=00:00:12.50 bitrate=7716.7kbits/s speed=0.667x    
executeCommand> ErrorStream: frame=  589 fps= 30 q=25.0 size=   12032kB time=00:00:12.69 bitrate=7765.2kbits/s speed=0.656x    
executeCommand> ErrorStream: frame=  598 fps= 30 q=22.0 size=   12288kB time=00:00:12.90 bitrate=7799.4kbits/s speed=0.645x    
executeCommand> ErrorStream: frame=  615 fps= 30 q=25.0 size=   12800kB time=00:00:13.22 bitrate=7927.8kbits/s speed=0.644x    
executeCommand> ErrorStream: frame=  631 fps= 30 q=25.0 size=   13056kB time=00:00:13.61 bitrate=7858.2kbits/s speed=0.647x    
executeCommand> ErrorStream: frame=  646 fps= 30 q=25.0 size=   13568kB time=00:00:13.93 bitrate=7978.8kbits/s speed=0.644x    
executeCommand> ErrorStream: frame=  662 fps= 30 q=25.0 size=   14080kB time=00:00:14.25 bitrate=8093.9kbits/s speed=0.637x    
executeCommand> ErrorStream: frame=  675 fps= 29 q=25.0 size=   14336kB time=00:00:14.50 bitrate=8095.6kbits/s speed=0.632x    
executeCommand> ErrorStream: frame=  691 fps= 29 q=25.0 size=   14848kB time=00:00:14.89 bitrate=8168.6kbits/s speed=0.635x    
executeCommand> ErrorStream: frame=  706 fps= 29 q=25.0 size=   15104kB time=00:00:15.14 bitrate=8168.9kbits/s speed=0.631x    
executeCommand> ErrorStream: frame=  723 fps= 29 q=25.0 size=   15616kB time=00:00:15.50 bitrate=8248.4kbits/s speed=0.628x    
executeCommand> ErrorStream: frame=  734 fps= 29 q=25.0 size=   15872kB time=00:00:15.72 bitrate=8269.8kbits/s speed=0.624x    
executeCommand> ErrorStream: frame=  747 fps= 29 q=25.0 size=   16128kB time=00:00:16.04 bitrate=8235.6kbits/s speed=0.623x    
executeCommand> ErrorStream: frame=  763 fps= 29 q=25.0 size=   16640kB time=00:00:16.34 bitrate=8341.7kbits/s speed=0.622x    
executeCommand> ErrorStream: frame=  778 fps= 29 q=25.0 size=   16896kB time=00:00:16.66 bitrate=8307.4kbits/s speed=0.622x    
executeCommand> ErrorStream: frame=  784 fps= 29 q=25.0 size=   17152kB time=00:00:16.81 bitrate=8358.4kbits/s speed=0.616x    
executeCommand> ErrorStream: frame=  799 fps= 29 q=25.0 size=   17408kB time=00:00:17.13 bitrate=8324.6kbits/s speed=0.615x    
executeCommand> ErrorStream: frame=  815 fps= 29 q=25.0 size=   17920kB time=00:00:17.42 bitrate=8422.6kbits/s speed=0.61x    
executeCommand> ErrorStream: frame=  832 fps= 29 q=25.0 size=   18176kB time=00:00:17.83 bitrate=8348.8kbits/s speed=0.613x    
executeCommand> ErrorStream: frame=  845 fps= 29 q=25.0 size=   18688kB time=00:00:18.02 bitrate=8492.6kbits/s speed=0.609x    
executeCommand> ErrorStream: frame=  860 fps= 29 q=25.0 size=   19200kB time=00:00:18.41 bitrate=8543.2kbits/s speed=0.611x    
executeCommand> ErrorStream: frame=  874 fps= 29 q=25.0 size=   19456kB time=00:00:18.60 bitrate=8567.8kbits/s speed=0.607x    
executeCommand> ErrorStream: frame=  889 fps= 28 q=25.0 size=   19712kB time=00:00:18.98 bitrate=8505.0kbits/s speed=0.607x    
executeCommand> ErrorStream: frame=  905 fps= 28 q=25.0 size=   20224kB time=00:00:19.28 bitrate=8590.7kbits/s speed=0.606x    
executeCommand> ErrorStream: frame=  918 fps= 28 q=25.0 size=   20480kB time=00:00:19.66 bitrate=8529.7kbits/s speed=0.609x    
executeCommand> ErrorStream: frame=  935 fps= 28 q=25.0 size=   20992kB time=00:00:19.94 bitrate=8621.3kbits/s speed=0.608x    
executeCommand> ErrorStream: frame=  949 fps= 28 q=25.0 size=   21504kB time=00:00:20.24 bitrate=8701.3kbits/s speed=0.606x    
executeCommand> ErrorStream: frame=  963 fps= 28 q=25.0 size=   21760kB time=00:00:20.58 bitrate=8658.9kbits/s speed=0.607x    
executeCommand> ErrorStream: frame=  977 fps= 28 q=25.0 size=   22272kB time=00:00:20.77 bitrate=8780.8kbits/s speed=0.603x    
executeCommand> ErrorStream: frame=  994 fps= 28 q=25.0 size=   22528kB time=00:00:21.16 bitrate=8720.5kbits/s speed=0.605x    
executeCommand> ErrorStream: frame= 1008 fps= 28 q=25.0 size=   23040kB time=00:00:21.48 bitrate=8785.9kbits/s speed=0.602x    
executeCommand> ErrorStream: frame= 1025 fps= 28 q=25.0 size=   23552kB time=00:00:21.78 bitrate=8858.0kbits/s speed=0.601x    
executeCommand> ErrorStream: frame= 1041 fps= 28 q=25.0 size=   23808kB time=00:00:22.16 bitrate=8799.1kbits/s speed=0.603x    
executeCommand> ErrorStream: frame= 1056 fps= 28 q=25.0 size=   24320kB time=00:00:22.48 bitrate=8860.4kbits/s speed= 0.6x    
executeCommand> ErrorStream: frame= 1075 fps= 28 q=25.0 size=   24576kB time=00:00:22.86 bitrate=8803.4kbits/s speed=0.602x    
executeCommand> ErrorStream: frame= 1092 fps= 28 q=25.0 size=   25088kB time=00:00:23.14 bitrate=8879.1kbits/s speed=0.601x    
executeCommand> ErrorStream: frame= 1104 fps= 28 q=25.0 size=   25344kB time=00:00:23.46 bitrate=8847.4kbits/s speed=0.599x    
executeCommand> ErrorStream: frame= 1121 fps= 28 q=25.0 size=   25856kB time=00:00:23.78 bitrate=8904.7kbits/s speed= 0.6x    
executeCommand> ErrorStream: frame= 1134 fps= 28 q=25.0 size=   26112kB time=00:00:24.10 bitrate=8873.5kbits/s speed= 0.6x    
executeCommand> ErrorStream: frame= 1149 fps= 28 q=25.0 size=   26624kB time=00:00:24.36 bitrate=8952.4kbits/s speed=0.599x    
executeCommand> ErrorStream: frame= 1164 fps= 28 q=25.0 size=   27136kB time=00:00:24.72 bitrate=8990.7kbits/s speed=0.598x    
executeCommand> ErrorStream: frame= 1181 fps= 28 q=25.0 size=   27392kB time=00:00:25.06 bitrate=8952.0kbits/s speed=0.599x    
executeCommand> ErrorStream: frame= 1198 fps= 28 q=25.0 size=   27904kB time=00:00:25.45 bitrate=8981.7kbits/s speed=0.601x    
executeCommand> ErrorStream: frame= 1212 fps= 28 q=25.0 size=   28160kB time=00:00:25.70 bitrate=8973.8kbits/s speed=0.597x    
executeCommand> ErrorStream: frame= 1229 fps= 28 q=25.0 size=   28672kB time=00:00:26.06 bitrate=9009.9kbits/s speed=0.598x    
executeCommand> ErrorStream: frame= 1246 fps= 28 q=25.0 size=   29184kB time=00:00:26.45 bitrate=9037.6kbits/s speed= 0.6x    
executeCommand> ErrorStream: frame= 1260 fps= 28 q=25.0 size=   29440kB time=00:00:26.70 bitrate=9029.5kbits/s speed=0.596x    
executeCommand> ErrorStream: frame= 1280 fps= 28 q=25.0 size=   29952kB time=00:00:27.15 bitrate=9035.0kbits/s speed=0.599x    
executeCommand> ErrorStream: frame= 1291 fps= 28 q=25.0 size=   30208kB time=00:00:27.43 bitrate=9020.1kbits/s speed=0.599x    
executeCommand> ErrorStream: frame= 1306 fps= 28 q=25.0 size=   30464kB time=00:00:27.69 bitrate=9012.5kbits/s speed=0.598x    
executeCommand> ErrorStream: frame= 1320 fps= 28 q=25.0 size=   30976kB time=00:00:28.01 bitrate=9059.3kbits/s speed=0.596x    
executeCommand> ErrorStream: frame= 1336 fps= 28 q=22.0 size=   31232kB time=00:00:28.30 bitrate=9037.8kbits/s speed=0.596x    
executeCommand> ErrorStream: frame= 1353 fps= 28 q=25.0 size=   31744kB time=00:00:28.69 bitrate=9063.0kbits/s speed=0.598x    
executeCommand> ErrorStream: frame= 1368 fps= 28 q=25.0 size=   32256kB time=00:00:29.01 bitrate=9107.6kbits/s speed=0.596x    
executeCommand> ErrorStream: frame= 1384 fps= 28 q=25.0 size=   32512kB time=00:00:29.33 bitrate=9079.7kbits/s speed=0.597x    
executeCommand> ErrorStream: frame= 1398 fps= 28 q=25.0 size=   33024kB time=00:00:29.61 bitrate=9136.3kbits/s speed=0.596x    
executeCommand> ErrorStream: frame= 1414 fps= 28 q=25.0 size=   33280kB time=00:00:29.86 bitrate=9128.2kbits/s speed=0.595x    
executeCommand> ErrorStream: frame= 1428 fps= 28 q=25.0 size=   33792kB time=00:00:30.18 bitrate=9170.4kbits/s speed=0.593x    
executeCommand> ErrorStream: frame= 1446 fps= 28 q=25.0 size=   34048kB time=00:00:30.57 bitrate=9123.8kbits/s speed=0.595x    
executeCommand> ErrorStream: frame= 1462 fps= 28 q=25.0 size=   34560kB time=00:00:30.95 bitrate=9146.1kbits/s speed=0.596x    
executeCommand> ErrorStream: frame= 1477 fps= 28 q=25.0 size=   34816kB time=00:00:31.25 bitrate=9125.8kbits/s speed=0.594x    
executeCommand> ErrorStream: frame= 1494 fps= 28 q=25.0 size=   35328kB time=00:00:31.59 bitrate=9160.0kbits/s speed=0.595x    
executeCommand> ErrorStream: frame= 1510 fps= 28 q=25.0 size=   35584kB time=00:00:31.91 bitrate=9133.9kbits/s speed=0.595x    
executeCommand> ErrorStream: frame= 1524 fps= 28 q=25.0 size=   35840kB time=00:00:32.21 bitrate=9114.3kbits/s speed=0.593x    
executeCommand> ErrorStream: frame= 1541 fps= 28 q=25.0 size=   36352kB time=00:00:32.59 bitrate=9135.6kbits/s speed=0.594x    
executeCommand> ErrorStream: frame= 1557 fps= 28 q=25.0 size=   36608kB time=00:00:32.87 bitrate=9122.3kbits/s speed=0.594x    
executeCommand> ErrorStream: frame= 1566 fps= 28 q=22.0 size=   36864kB time=00:00:33.06 bitrate=9132.8kbits/s speed=0.591x    
executeCommand> ErrorStream: frame= 1583 fps= 28 q=25.0 size=   37376kB time=00:00:33.45 bitrate=9153.3kbits/s speed=0.592x    
executeCommand> ErrorStream: frame= 1599 fps= 28 q=25.0 size=   37888kB time=00:00:33.77 bitrate=9190.8kbits/s speed=0.593x    
executeCommand> ErrorStream: frame= 1615 fps= 28 q=25.0 size=   38144kB time=00:00:34.15 bitrate=9148.9kbits/s speed=0.594x    
executeCommand> ErrorStream: frame= 1630 fps= 28 q=25.0 size=   38656kB time=00:00:34.47 bitrate=9185.6kbits/s speed=0.592x    
executeCommand> ErrorStream: frame= 1650 fps= 28 q=25.0 size=   39168kB time=00:00:34.79 bitrate=9221.7kbits/s speed=0.593x    
executeCommand> ErrorStream: frame= 1667 fps= 28 q=25.0 size=   39680kB time=00:00:35.17 bitrate=9240.2kbits/s speed=0.592x    
executeCommand> ErrorStream: frame= 1682 fps= 28 q=25.0 size=   39936kB time=00:00:35.60 bitrate=9188.4kbits/s speed=0.594x    
executeCommand> ErrorStream: frame= 1695 fps= 28 q=25.0 size=   40448kB time=00:00:35.79 bitrate=9256.3kbits/s speed=0.592x    
executeCommand> ErrorStream: frame= 1713 fps= 28 q=25.0 size=   40704kB time=00:00:36.18 bitrate=9216.0kbits/s speed=0.593x    
executeCommand> ErrorStream: frame= 1727 fps= 28 q=25.0 size=   41216kB time=00:00:36.45 bitrate=9260.9kbits/s speed=0.591x    
executeCommand> ErrorStream: frame= 1743 fps= 28 q=25.0 size=   41472kB time=00:00:36.77 bitrate=9237.4kbits/s speed=0.591x    
executeCommand> ErrorStream: frame= 1758 fps= 28 q=25.0 size=   41984kB time=00:00:37.09 bitrate=9270.8kbits/s speed=0.592x    
executeCommand> ErrorStream: frame= 1775 fps= 28 q=25.0 size=   42496kB time=00:00:37.46 bitrate=9293.0kbits/s speed=0.591x    
executeCommand> ErrorStream: frame= 1791 fps= 28 q=25.0 size=   42752kB time=00:00:37.78 bitrate=9269.8kbits/s speed=0.591x    
executeCommand> ErrorStream: frame= 1806 fps= 28 q=25.0 size=   43264kB time=00:00:38.10 bitrate=9302.0kbits/s speed=0.591x    
executeCommand> ErrorStream: frame= 1823 fps= 28 q=25.0 size=   43776kB time=00:00:38.44 bitrate=9328.5kbits/s speed=0.59x    
executeCommand> ErrorStream: frame= 1840 fps= 28 q=25.0 size=   44032kB time=00:00:38.80 bitrate=9295.4kbits/s speed=0.591x    
executeCommand> ErrorStream: frame= 1855 fps= 28 q=25.0 size=   44288kB time=00:00:39.18 bitrate=9257.8kbits/s speed=0.592x    
executeCommand> ErrorStream: frame= 1870 fps= 28 q=25.0 size=   44800kB time=00:00:39.40 bitrate=9314.1kbits/s speed=0.589x    
executeCommand> ErrorStream: frame= 1888 fps= 28 q=22.0 size=   45056kB time=00:00:39.78 bitrate=9277.0kbits/s speed=0.591x    
executeCommand> ErrorStream: frame= 1902 fps= 28 q=25.0 size=   45568kB time=00:00:40.10 bitrate=9307.5kbits/s speed=0.591x    
executeCommand> ErrorStream: frame= 1917 fps= 28 q=25.0 size=   46080kB time=00:00:40.46 bitrate=9327.7kbits/s speed=0.591x    
executeCommand> ErrorStream: frame= 1932 fps= 28 q=25.0 size=   46336kB time=00:00:40.72 bitrate=9320.6kbits/s speed=0.589x    
executeCommand> ErrorStream: frame= 1949 fps= 28 q=25.0 size=   46848kB time=00:00:41.06 bitrate=9345.3kbits/s speed=0.589x    
executeCommand> ErrorStream: frame= 1965 fps= 28 q=25.0 size=   47360kB time=00:00:41.45 bitrate=9359.9kbits/s speed=0.591x    
executeCommand> ErrorStream: frame= 1980 fps= 28 q=25.0 size=   47872kB time=00:00:41.74 bitrate=9393.4kbits/s speed=0.589x    
executeCommand> ErrorStream: frame= 1997 fps= 28 q=25.0 size=   48128kB time=00:00:42.09 bitrate=9367.0kbits/s speed=0.59x    
executeCommand> ErrorStream: frame= 2014 fps= 28 q=25.0 size=   48640kB time=00:00:42.38 bitrate=9400.0kbits/s speed=0.59x    
executeCommand> ErrorStream: frame= 2028 fps= 28 q=25.0 size=   48896kB time=00:00:42.73 bitrate=9374.0kbits/s speed=0.589x    
executeCommand> ErrorStream: frame= 2045 fps= 28 q=25.0 size=   49152kB time=00:00:43.09 bitrate=9343.8kbits/s speed=0.589x    
executeCommand> ErrorStream: frame= 2060 fps= 28 q=25.0 size=   49664kB time=00:00:43.47 bitrate=9357.7kbits/s speed=0.591x    
executeCommand> ErrorStream: frame= 2076 fps= 28 q=25.0 size=   49920kB time=00:00:43.73 bitrate=9350.9kbits/s speed=0.589x    
executeCommand> ErrorStream: frame= 2093 fps= 28 q=25.0 size=   50432kB time=00:00:44.07 bitrate=9373.6kbits/s speed=0.589x    
executeCommand> ErrorStream: frame= 2110 fps= 28 q=25.0 size=   50688kB time=00:00:44.45 bitrate=9339.8kbits/s speed=0.59x    
executeCommand> ErrorStream: frame= 2124 fps= 28 q=22.0 size=   51200kB time=00:00:44.71 bitrate=9380.2kbits/s speed=0.589x    
executeCommand> ErrorStream: frame= 2141 fps= 28 q=25.0 size=   51712kB time=00:00:45.07 bitrate=9397.7kbits/s speed=0.589x    
executeCommand> ErrorStream: frame= 2157 fps= 28 q=25.0 size=   51968kB time=00:00:45.46 bitrate=9364.5kbits/s speed=0.59x    
executeCommand> ErrorStream: frame= 2172 fps= 28 q=25.0 size=   52480kB time=00:00:45.73 bitrate=9399.4kbits/s speed=0.589x    
executeCommand> ErrorStream: frame= 2189 fps= 28 q=25.0 size=   52992kB time=00:00:46.10 bitrate=9416.4kbits/s speed=0.588x    
executeCommand> ErrorStream: frame= 2205 fps= 28 q=25.0 size=   53248kB time=00:00:46.37 bitrate=9405.4kbits/s speed=0.588x    
executeCommand> ErrorStream: frame= 2220 fps= 28 q=25.0 size=   53760kB time=00:00:46.76 bitrate=9417.8kbits/s speed=0.589x    
executeCommand> ErrorStream: frame= 2237 fps= 28 q=25.0 size=   54016kB time=00:00:47.08 bitrate=9398.4kbits/s speed=0.588x    
executeCommand> ErrorStream: frame= 2254 fps= 28 q=25.0 size=   54528kB time=00:00:47.46 bitrate=9410.7kbits/s speed=0.589x    
executeCommand> ErrorStream: frame= 2268 fps= 28 q=25.0 size=   55040kB time=00:00:47.72 bitrate=9448.1kbits/s speed=0.588x    
executeCommand> ErrorStream: frame= 2282 fps= 28 q=25.0 size=   55296kB time=00:00:48.08 bitrate=9420.4kbits/s speed=0.589x    
executeCommand> ErrorStream: frame= 2296 fps= 28 q=25.0 size=   55808kB time=00:00:48.29 bitrate=9465.7kbits/s speed=0.588x    
executeCommand> ErrorStream: frame= 2313 fps= 28 q=25.0 size=   56064kB time=00:00:48.72 bitrate=9425.8kbits/s speed=0.589x    
executeCommand> ErrorStream: frame= 2328 fps= 28 q=25.0 size=   56576kB time=00:00:49.04 bitrate=9449.8kbits/s speed=0.589x    
executeCommand> ErrorStream: frame= 2344 fps= 28 q=25.0 size=   57088kB time=00:00:49.32 bitrate=9481.8kbits/s speed=0.588x    
executeCommand> ErrorStream: frame= 2361 fps= 28 q=25.0 size=   57600kB time=00:00:49.70 bitrate=9492.9kbits/s speed=0.589x    
executeCommand> ErrorStream: frame= 2376 fps= 28 q=25.0 size=   57856kB time=00:00:50.02 bitrate=9474.1kbits/s speed=0.588x    
executeCommand> ErrorStream: frame= 2391 fps= 28 q=25.0 size=   58368kB time=00:00:50.28 bitrate=9509.3kbits/s speed=0.588x    
executeCommand> ErrorStream: frame= 2408 fps= 28 q=25.0 size=   58880kB time=00:00:50.70 bitrate=9512.0kbits/s speed=0.589x    
executeCommand> ErrorStream: frame= 2421 fps= 28 q=25.0 size=   59136kB time=00:00:50.90 bitrate=9517.3kbits/s speed=0.588x    
executeCommand> ErrorStream: frame= 2436 fps= 28 q=25.0 size=   59648kB time=00:00:51.22 bitrate=9539.7kbits/s speed=0.587x    
executeCommand> ErrorStream: frame= 2453 fps= 28 q=25.0 size=   59904kB time=00:00:51.60 bitrate=9509.4kbits/s speed=0.588x    
executeCommand> ErrorStream: frame= 2471 fps= 28 q=25.0 size=   60416kB time=00:00:51.98 bitrate=9519.8kbits/s speed=0.589x    
executeCommand> ErrorStream: frame= 2485 fps= 28 q=25.0 size=   60928kB time=00:00:52.26 bitrate=9549.5kbits/s speed=0.587x    
executeCommand> ErrorStream: frame= 2501 fps= 28 q=25.0 size=   61184kB time=00:00:52.62 bitrate=9523.6kbits/s speed=0.588x    
executeCommand> ErrorStream: frame= 2518 fps= 28 q=25.0 size=   61696kB time=00:00:52.90 bitrate=9552.9kbits/s speed=0.588x    
executeCommand> ErrorStream: frame= 2532 fps= 28 q=25.0 size=   61952kB time=00:00:53.22 bitrate=9534.9kbits/s speed=0.587x    
executeCommand> ErrorStream: frame= 2549 fps= 28 q=25.0 size=   62464kB time=00:00:53.61 bitrate=9544.8kbits/s speed=0.588x    
executeCommand> ErrorStream: frame= 2566 fps= 28 q=25.0 size=   62720kB time=00:00:53.90 bitrate=9530.9kbits/s speed=0.588x    
executeCommand> ErrorStream: frame= 2580 fps= 28 q=25.0 size=   63232kB time=00:00:54.22 bitrate=9552.0kbits/s speed=0.587x    
executeCommand> ErrorStream: frame= 2597 fps= 28 q=25.0 size=   63488kB time=00:00:54.61 bitrate=9523.2kbits/s speed=0.588x    
executeCommand> ErrorStream: frame= 2613 fps= 28 q=25.0 size=   64000kB time=00:00:54.89 bitrate=9551.5kbits/s speed=0.587x    
executeCommand> ErrorStream: frame= 2625 fps= 28 q=25.0 size=   64256kB time=00:00:55.18 bitrate=9537.8kbits/s speed=0.587x    
executeCommand> ErrorStream: frame= 2642 fps= 28 q=25.0 size=   64768kB time=00:00:55.63 bitrate=9536.4kbits/s speed=0.589x    
executeCommand> ErrorStream: frame= 2658 fps= 28 q=25.0 size=   65280kB time=00:00:55.85 bitrate=9575.1kbits/s speed=0.587x    
executeCommand> ErrorStream: frame= 2675 fps= 28 q=25.0 size=   65536kB time=00:00:56.21 bitrate=9550.6kbits/s speed=0.588x    
executeCommand> ErrorStream: frame= 2691 fps= 28 q=25.0 size=   65792kB time=00:00:56.61 bitrate=9519.3kbits/s speed=0.589x    
executeCommand> ErrorStream: frame= 2706 fps= 28 q=25.0 size=   66304kB time=00:00:56.85 bitrate=9553.8kbits/s speed=0.587x    
executeCommand> ErrorStream: frame= 2722 fps= 28 q=25.0 size=   66560kB time=00:00:57.23 bitrate=9526.3kbits/s speed=0.588x    
executeCommand> ErrorStream: frame= 2740 fps= 28 q=25.0 size=   67072kB time=00:00:57.57 bitrate=9542.7kbits/s speed=0.588x    
executeCommand> ErrorStream: frame= 2755 fps= 28 q=25.0 size=   67584kB time=00:00:57.87 bitrate=9565.9kbits/s speed=0.587x    
executeCommand> ErrorStream: frame= 2771 fps= 28 q=25.0 size=   67840kB time=00:00:58.26 bitrate=9538.8kbits/s speed=0.588x    
executeCommand> ErrorStream: frame= 2786 fps= 28 q=25.0 size=   68352kB time=00:00:58.53 bitrate=9565.3kbits/s speed=0.588x    
executeCommand> ErrorStream: frame= 2802 fps= 28 q=25.0 size=   68864kB time=00:00:58.83 bitrate=9588.0kbits/s speed=0.588x    
executeCommand> ErrorStream: frame= 2818 fps= 28 q=25.0 size=   69120kB time=00:00:59.22 bitrate=9561.3kbits/s speed=0.588x    
executeCommand> ErrorStream: frame= 2838 fps= 28 q=25.0 size=   69632kB time=00:00:59.62 bitrate=9566.6kbits/s speed=0.589x    
executeCommand> ErrorStream: frame= 2850 fps= 28 q=25.0 size=   69888kB time=00:00:59.86 bitrate=9564.2kbits/s speed=0.588x    
executeCommand> ErrorStream: frame= 2874 fps= 28 q=25.0 size=   70400kB time=00:01:00.39 bitrate=9549.1kbits/s speed=0.59x    
executeCommand> ErrorStream: frame= 2892 fps= 28 q=25.0 size=   70656kB time=00:01:00.75 bitrate=9526.7kbits/s speed=0.591x    
executeCommand> ErrorStream: frame= 2913 fps= 28 q=25.0 size=   70912kB time=00:01:01.20 bitrate=9491.2kbits/s speed=0.591x    
executeCommand> ErrorStream: frame= 2937 fps= 28 q=25.0 size=   71168kB time=00:01:01.65 bitrate=9456.2kbits/s speed=0.592x    
executeCommand> ErrorStream: frame= 2959 fps= 28 q=25.0 size=   71424kB time=00:01:02.12 bitrate=9418.6kbits/s speed=0.594x    
executeCommand> ErrorStream: frame= 2976 fps= 28 q=25.0 size=   71936kB time=00:01:02.54 bitrate=9421.4kbits/s speed=0.595x    
executeCommand> ErrorStream: frame= 2997 fps= 28 q=25.0 size=   72192kB time=00:01:02.93 bitrate=9397.2kbits/s speed=0.595x    
executeCommand> ErrorStream: frame= 3019 fps= 28 q=25.0 size=   72448kB time=00:01:03.40 bitrate=9360.7kbits/s speed=0.597x    
executeCommand> ErrorStream: frame= 3037 fps= 28 q=25.0 size=   72704kB time=00:01:03.82 bitrate=9331.0kbits/s speed=0.598x    
executeCommand> ErrorStream: frame= 3056 fps= 28 q=25.0 size=   72960kB time=00:01:04.14 bitrate=9317.1kbits/s speed=0.597x    
executeCommand> ErrorStream: frame= 3080 fps= 29 q=25.0 size=   73472kB time=00:01:04.66 bitrate=9308.2kbits/s speed=0.599x    
executeCommand> ErrorStream: frame= 3102 fps= 29 q=22.0 size=   73728kB time=00:01:05.13 bitrate=9273.4kbits/s speed=0.599x    
executeCommand> ErrorStream: frame= 3127 fps= 29 q=25.0 size=   74240kB time=00:01:05.64 bitrate=9264.9kbits/s speed=0.601x    
executeCommand> ErrorStream: frame= 3148 fps= 29 q=25.0 size=   74496kB time=00:01:06.13 bitrate=9227.9kbits/s speed=0.603x    
executeCommand> ErrorStream: frame= 3164 fps= 29 q=25.0 size=   74752kB time=00:01:06.53 bitrate=9203.2kbits/s speed=0.604x    
executeCommand> ErrorStream: frame= 3187 fps= 29 q=25.0 size=   75008kB time=00:01:06.92 bitrate=9181.7kbits/s speed=0.604x    
executeCommand> ErrorStream: frame= 3211 fps= 29 q=25.0 size=   75264kB time=00:01:07.41 bitrate=9146.0kbits/s speed=0.606x    
executeCommand> ErrorStream: frame= 3231 fps= 29 q=25.0 size=   75520kB time=00:01:07.81 bitrate=9122.3kbits/s speed=0.607x    
executeCommand> ErrorStream: frame= 3251 fps= 29 q=25.0 size=   75776kB time=00:01:08.20 bitrate=9101.7kbits/s speed=0.607x    
executeCommand> ErrorStream: frame= 3274 fps= 29 q=25.0 size=   76032kB time=00:01:08.75 bitrate=9058.7kbits/s speed=0.609x    
executeCommand> ErrorStream: frame= 3293 fps= 29 q=25.0 size=   76288kB time=00:01:09.14 bitrate=9038.8kbits/s speed=0.61x    
executeCommand> ErrorStream: frame= 3311 fps= 29 q=25.0 size=   76544kB time=00:01:09.54 bitrate=9016.2kbits/s speed=0.611x    
executeCommand> ErrorStream: frame= 3330 fps= 29 q=25.0 size=   76800kB time=00:01:09.86 bitrate=9005.0kbits/s speed=0.61x    
executeCommand> ErrorStream: frame= 3350 fps= 29 q=25.0 size=   77056kB time=00:01:10.35 bitrate=8972.0kbits/s speed=0.612x    
executeCommand> ErrorStream: frame= 3370 fps= 29 q=25.0 size=   77568kB time=00:01:10.74 bitrate=8982.5kbits/s speed=0.613x    
executeCommand> ErrorStream: frame= 3392 fps= 29 q=25.0 size=   77824kB time=00:01:11.14 bitrate=8960.8kbits/s speed=0.613x    
executeCommand> ErrorStream: frame= 3416 fps= 29 q=25.0 size=   78080kB time=00:01:11.65 bitrate=8926.1kbits/s speed=0.614x    
executeCommand> ErrorStream: frame= 3437 fps= 29 q=25.0 size=   78336kB time=00:01:12.10 bitrate=8899.7kbits/s speed=0.615x    
executeCommand> ErrorStream: frame= 3457 fps= 29 q=25.0 size=   78848kB time=00:01:12.55 bitrate=8902.6kbits/s speed=0.616x    
executeCommand> ErrorStream: frame= 3481 fps= 29 q=25.0 size=   79104kB time=00:01:13.04 bitrate=8871.5kbits/s speed=0.618x    
executeCommand> ErrorStream: frame= 3500 fps= 29 q=25.0 size=   79360kB time=00:01:13.45 bitrate=8851.1kbits/s speed=0.618x    
executeCommand> ErrorStream: frame= 3521 fps= 30 q=25.0 size=   79616kB time=00:01:13.83 bitrate=8833.4kbits/s speed=0.619x    
executeCommand> ErrorStream: frame= 3542 fps= 30 q=25.0 size=   79872kB time=00:01:14.34 bitrate=8800.8kbits/s speed=0.621x    
executeCommand> ErrorStream: frame= 3560 fps= 30 q=25.0 size=   80128kB time=00:01:14.66 bitrate=8791.2kbits/s speed=0.621x    
executeCommand> ErrorStream: frame= 3581 fps= 30 q=25.0 size=   80384kB time=00:01:15.11 bitrate=8766.7kbits/s speed=0.621x    
executeCommand> ErrorStream: frame= 3602 fps= 30 q=22.0 size=   80640kB time=00:01:15.60 bitrate=8737.5kbits/s speed=0.622x    
executeCommand> ErrorStream: frame= 3626 fps= 30 q=25.0 size=   81152kB time=00:01:16.07 bitrate=8738.8kbits/s speed=0.623x    
executeCommand> ErrorStream: frame= 3647 fps= 30 q=25.0 size=   81408kB time=00:01:16.56 bitrate=8710.1kbits/s speed=0.625x    
executeCommand> ErrorStream: frame= 3666 fps= 30 q=25.0 size=   81664kB time=00:01:16.88 bitrate=8701.2kbits/s speed=0.624x    
executeCommand> ErrorStream: frame= 3688 fps= 30 q=25.0 size=   81920kB time=00:01:17.41 bitrate=8668.3kbits/s speed=0.626x    
executeCommand> ErrorStream: frame= 3707 fps= 30 q=25.0 size=   82176kB time=00:01:17.73 bitrate=8659.6kbits/s speed=0.626x    
executeCommand> ErrorStream: frame= 3731 fps= 30 q=25.0 size=   82432kB time=00:01:18.22 bitrate=8632.1kbits/s speed=0.627x    
executeCommand> ErrorStream: frame= 3755 fps= 30 q=25.0 size=   82688kB time=00:01:18.74 bitrate=8602.6kbits/s speed=0.628x    
executeCommand> ErrorStream: frame= 3779 fps= 30 q=25.0 size=   82944kB time=00:01:19.21 bitrate=8578.1kbits/s speed=0.629x    
executeCommand> ErrorStream: frame= 3803 fps= 30 q=25.0 size=   83456kB time=00:01:19.76 bitrate=8571.0kbits/s speed=0.63x    
executeCommand> ErrorStream: frame= 3827 fps= 30 q=25.0 size=   83712kB time=00:01:20.23 bitrate=8547.0kbits/s speed=0.631x    
executeCommand> ErrorStream: frame= 3848 fps= 30 q=25.0 size=   83968kB time=00:01:20.68 bitrate=8525.6kbits/s speed=0.632x    
executeCommand> ErrorStream: frame= 3866 fps= 30 q=25.0 size=   84480kB time=00:01:21.06 bitrate=8536.9kbits/s speed=0.632x    
executeCommand> ErrorStream: frame= 3884 fps= 30 q=25.0 size=   84736kB time=00:01:21.42 bitrate=8524.7kbits/s speed=0.632x    
executeCommand> ErrorStream: frame= 3904 fps= 30 q=25.0 size=   84992kB time=00:01:21.87 bitrate=8503.6kbits/s speed=0.633x    
executeCommand> ErrorStream: frame= 3927 fps= 30 q=25.0 size=   85248kB time=00:01:22.32 bitrate=8482.8kbits/s speed=0.634x    
executeCommand> ErrorStream: frame= 3942 fps= 30 q=25.0 size=   85504kB time=00:01:22.66 bitrate=8473.2kbits/s speed=0.634x    
executeCommand> ErrorStream: frame= 3964 fps= 30 q=25.0 size=   85760kB time=00:01:23.09 bitrate=8454.9kbits/s speed=0.634x    
executeCommand> ErrorStream: frame= 3985 fps= 30 q=25.0 size=   86272kB time=00:01:23.56 bitrate=8457.6kbits/s speed=0.635x    
executeCommand> ErrorStream: frame= 4002 fps= 30 q=25.0 size=   86272kB time=00:01:23.88 bitrate=8425.3kbits/s speed=0.635x    
executeCommand> ErrorStream: frame= 4020 fps= 30 q=25.0 size=   86784kB time=00:01:24.26 bitrate=8436.7kbits/s speed=0.635x    
executeCommand> ErrorStream: frame= 4040 fps= 30 q=25.0 size=   87296kB time=00:01:24.69 bitrate=8443.7kbits/s speed=0.636x    
executeCommand> ErrorStream: frame= 4057 fps= 30 q=25.0 size=   87552kB time=00:01:25.03 bitrate=8434.5kbits/s speed=0.636x    
executeCommand> ErrorStream: frame= 4074 fps= 30 q=25.0 size=   87808kB time=00:01:25.41 bitrate=8421.2kbits/s speed=0.636x    
executeCommand> ErrorStream: frame= 4088 fps= 30 q=25.0 size=   88064kB time=00:01:25.67 bitrate=8420.5kbits/s speed=0.636x    
executeCommand> ErrorStream: frame= 4105 fps= 30 q=25.0 size=   88576kB time=00:01:26.03 bitrate=8433.7kbits/s speed=0.636x    
executeCommand> ErrorStream: frame= 4122 fps= 30 q=25.0 size=   88832kB time=00:01:26.42 bitrate=8420.5kbits/s speed=0.636x    
executeCommand> ErrorStream: frame= 4136 fps= 30 q=25.0 size=   89088kB time=00:01:26.69 bitrate=8417.8kbits/s speed=0.636x    
executeCommand> ErrorStream: frame= 4156 fps= 30 q=25.0 size=   89344kB time=00:01:27.14 bitrate=8398.6kbits/s speed=0.637x    
executeCommand> ErrorStream: frame= 4170 fps= 30 q=25.0 size=   89600kB time=00:01:27.38 bitrate=8400.0kbits/s speed=0.636x    
executeCommand> ErrorStream: frame= 4184 fps= 30 q=25.0 size=   89856kB time=00:01:27.70 bitrate=8393.3kbits/s speed=0.636x    
executeCommand> ErrorStream: frame= 4205 fps= 30 q=25.0 size=   90368kB time=00:01:28.14 bitrate=8398.2kbits/s speed=0.637x    
executeCommand> ErrorStream: frame= 4220 fps= 30 q=25.0 size=   90624kB time=00:01:28.46 bitrate=8391.5kbits/s speed=0.636x    
executeCommand> ErrorStream: frame= 4241 fps= 30 q=25.0 size=   90880kB time=00:01:28.85 bitrate=8378.9kbits/s speed=0.636x    
executeCommand> ErrorStream: frame= 4255 fps= 30 q=25.0 size=   91136kB time=00:01:29.13 bitrate=8376.3kbits/s speed=0.636x    
executeCommand> ErrorStream: frame= 4273 fps= 30 q=25.0 size=   91648kB time=00:01:29.55 bitrate=8383.2kbits/s speed=0.636x    
executeCommand> ErrorStream: frame= 4289 fps= 30 q=25.0 size=   91904kB time=00:01:29.94 bitrate=8370.8kbits/s speed=0.637x    
executeCommand> ErrorStream: frame= 4306 fps= 30 q=25.0 size=   92416kB time=00:01:30.21 bitrate=8391.5kbits/s speed=0.636x    
executeCommand> ErrorStream: frame= 4319 fps= 30 q=25.0 size=   92672kB time=00:01:30.58 bitrate=8381.1kbits/s speed=0.637x    
executeCommand> ErrorStream: frame= 4337 fps= 30 q=25.0 size=   92928kB time=00:01:30.85 bitrate=8378.6kbits/s speed=0.636x    
executeCommand> ErrorStream: frame= 4352 fps= 30 q=25.0 size=   93184kB time=00:01:31.15 bitrate=8374.1kbits/s speed=0.636x    
executeCommand> ErrorStream: frame= 4367 fps= 30 q=25.0 size=   93696kB time=00:01:31.56 bitrate=8382.9kbits/s speed=0.636x    
executeCommand> ErrorStream: frame= 4386 fps= 30 q=25.0 size=   93952kB time=00:01:31.88 bitrate=8376.5kbits/s speed=0.636x    
executeCommand> ErrorStream: frame= 4403 fps= 30 q=25.0 size=   94464kB time=00:01:32.24 bitrate=8389.0kbits/s speed=0.636x    
executeCommand> ErrorStream: frame= 4420 fps= 30 q=25.0 size=   94720kB time=00:01:32.65 bitrate=8375.0kbits/s speed=0.636x    
executeCommand> ErrorStream: frame= 4439 fps= 30 q=25.0 size=   95232kB time=00:01:33.03 bitrate=8385.5kbits/s speed=0.636x    
executeCommand> ErrorStream: frame= 4456 fps= 30 q=25.0 size=   95488kB time=00:01:33.41 bitrate=8373.5kbits/s speed=0.636x    
executeCommand> ErrorStream: frame= 4475 fps= 30 q=25.0 size=   96000kB time=00:01:33.78 bitrate=8385.8kbits/s speed=0.636x    
executeCommand> ErrorStream: frame= 4488 fps= 30 q=22.0 size=   96256kB time=00:01:34.05 bitrate=8383.4kbits/s speed=0.635x    
executeCommand> ErrorStream: frame= 4505 fps= 30 q=25.0 size=   96768kB time=00:01:34.35 bitrate=8401.3kbits/s speed=0.635x    
executeCommand> ErrorStream: frame= 4525 fps= 30 q=25.0 size=   97024kB time=00:01:34.76 bitrate=8387.5kbits/s speed=0.636x    
executeCommand> ErrorStream: frame= 4541 fps= 30 q=25.0 size=   97280kB time=00:01:35.14 bitrate=8375.7kbits/s speed=0.636x    
executeCommand> ErrorStream: frame= 4556 fps= 30 q=25.0 size=   97536kB time=00:01:35.46 bitrate=8369.6kbits/s speed=0.635x    
executeCommand> ErrorStream: frame= 4575 fps= 30 q=25.0 size=   98048kB time=00:01:35.85 bitrate=8379.8kbits/s speed=0.636x    
executeCommand> ErrorStream: frame= 4588 fps= 30 q=25.0 size=   98304kB time=00:01:36.17 bitrate=8373.7kbits/s speed=0.636x    
executeCommand> ErrorStream: frame= 4605 fps= 30 q=25.0 size=   98816kB time=00:01:36.53 bitrate=8385.7kbits/s speed=0.636x    
executeCommand> ErrorStream: frame= 4624 fps= 30 q=25.0 size=   99072kB time=00:01:36.91 bitrate=8374.1kbits/s speed=0.636x    
executeCommand> ErrorStream: frame= 4637 fps= 30 q=25.0 size=   99584kB time=00:01:37.10 bitrate=8400.8kbits/s speed=0.635x    
executeCommand> ErrorStream: frame= 4653 fps= 30 q=25.0 size=   99840kB time=00:01:37.49 bitrate=8389.2kbits/s speed=0.635x    
executeCommand> ErrorStream: frame= 4668 fps= 30 q=25.0 size=  100096kB time=00:01:37.81 bitrate=8383.2kbits/s speed=0.635x    
executeCommand> ErrorStream: frame= 4686 fps= 30 q=25.0 size=  100608kB time=00:01:38.19 bitrate=8393.1kbits/s speed=0.635x    
executeCommand> ErrorStream: frame= 4701 fps= 30 q=25.0 size=  100608kB time=00:01:38.47 bitrate=8369.5kbits/s speed=0.635x    
executeCommand> ErrorStream: frame= 4716 fps= 30 q=25.0 size=  101632kB time=00:01:38.79 bitrate=8427.3kbits/s speed=0.635x    
executeCommand> ErrorStream: frame= 4732 fps= 30 q=25.0 size=  102144kB time=00:01:39.11 bitrate=8442.4kbits/s speed=0.634x    
executeCommand> ErrorStream: frame= 4749 fps= 30 q=25.0 size=  102656kB time=00:01:39.47 bitrate=8453.8kbits/s speed=0.634x    
executeCommand> ErrorStream: frame= 4764 fps= 30 q=25.0 size=  103168kB time=00:01:39.79 bitrate=8468.7kbits/s speed=0.634x    
executeCommand> ErrorStream: frame= 4781 fps= 30 q=25.0 size=  103680kB time=00:01:40.11 bitrate=8483.5kbits/s speed=0.633x    
executeCommand> ErrorStream: frame= 4798 fps= 30 q=25.0 size=  103936kB time=00:01:40.50 bitrate=8472.0kbits/s speed=0.634x    
executeCommand> ErrorStream: frame= 4812 fps= 30 q=25.0 size=  104448kB time=00:01:40.82 bitrate=8486.7kbits/s speed=0.633x    
executeCommand> ErrorStream: frame= 4829 fps= 30 q=25.0 size=  104960kB time=00:01:41.09 bitrate=8504.9kbits/s speed=0.633x    
executeCommand> ErrorStream: frame= 4842 fps= 30 q=25.0 size=  105472kB time=00:01:41.41 bitrate=8519.4kbits/s speed=0.633x    
executeCommand> ErrorStream: frame= 4858 fps= 30 q=25.0 size=  105728kB time=00:01:41.78 bitrate=8509.7kbits/s speed=0.633x    
executeCommand> ErrorStream: frame= 4871 fps= 30 q=25.0 size=  106240kB time=00:01:41.99 bitrate=8533.0kbits/s speed=0.632x    
executeCommand> ErrorStream: frame= 4888 fps= 30 q=25.0 size=  106752kB time=00:01:42.37 bitrate=8541.9kbits/s speed=0.632x    
executeCommand> ErrorStream: frame= 4902 fps= 30 q=25.0 size=  107008kB time=00:01:42.69 bitrate=8535.7kbits/s speed=0.632x    
executeCommand> ErrorStream: frame= 4919 fps= 30 q=25.0 size=  107520kB time=00:01:43.01 bitrate=8549.9kbits/s speed=0.632x    
executeCommand> ErrorStream: frame= 4934 fps= 30 q=25.0 size=  108032kB time=00:01:43.33 bitrate=8564.1kbits/s speed=0.632x    
executeCommand> ErrorStream: frame= 4951 fps= 30 q=25.0 size=  108544kB time=00:01:43.70 bitrate=8574.6kbits/s speed=0.631x    
executeCommand> ErrorStream: frame= 4967 fps= 30 q=25.0 size=  108800kB time=00:01:44.02 bitrate=8568.3kbits/s speed=0.631x    
executeCommand> ErrorStream: frame= 4984 fps= 30 q=25.0 size=  109312kB time=00:01:44.40 bitrate=8577.0kbits/s speed=0.631x    
executeCommand> ErrorStream: frame= 4998 fps= 30 q=25.0 size=  109824kB time=00:01:44.72 bitrate=8590.8kbits/s speed=0.631x    
executeCommand> ErrorStream: frame= 5016 fps= 30 q=25.0 size=  110080kB time=00:01:45.00 bitrate=8588.1kbits/s speed=0.63x    
executeCommand> ErrorStream: frame= 5032 fps= 30 q=22.0 size=  110592kB time=00:01:45.38 bitrate=8596.6kbits/s speed=0.63x    
executeCommand> ErrorStream: frame= 5049 fps= 30 q=25.0 size=  111104kB time=00:01:45.77 bitrate=8605.1kbits/s speed=0.63x    
executeCommand> ErrorStream: frame= 5063 fps= 30 q=25.0 size=  111360kB time=00:01:46.00 bitrate=8605.8kbits/s speed=0.63x    
executeCommand> ErrorStream: frame= 5079 fps= 30 q=25.0 size=  111616kB time=00:01:46.38 bitrate=8594.5kbits/s speed=0.63x    
executeCommand> ErrorStream: frame= 5092 fps= 30 q=25.0 size=  112128kB time=00:01:46.60 bitrate=8616.6kbits/s speed=0.629x    
executeCommand> ErrorStream: frame= 5109 fps= 30 q=25.0 size=  112640kB time=00:01:47.02 bitrate=8621.4kbits/s speed=0.63x    
executeCommand> ErrorStream: frame= 5124 fps= 30 q=25.0 size=  112896kB time=00:01:47.34 bitrate=8615.3kbits/s speed=0.629x    
executeCommand> ErrorStream: frame= 5140 fps= 30 q=25.0 size=  113152kB time=00:01:47.62 bitrate=8612.6kbits/s speed=0.629x    
executeCommand> ErrorStream: frame= 5157 fps= 30 q=25.0 size=  113664kB time=00:01:48.01 bitrate=8620.8kbits/s speed=0.629x    
executeCommand> ErrorStream: frame= 5172 fps= 30 q=25.0 size=  113920kB time=00:01:48.33 bitrate=8614.7kbits/s speed=0.629x    
executeCommand> ErrorStream: frame= 5188 fps= 30 q=25.0 size=  114432kB time=00:01:48.62 bitrate=8629.6kbits/s speed=0.629x    
executeCommand> ErrorStream: frame= 5205 fps= 30 q=25.0 size=  114688kB time=00:01:49.01 bitrate=8618.4kbits/s speed=0.629x    
executeCommand> ErrorStream: frame= 5220 fps= 30 q=25.0 size=  114944kB time=00:01:49.33 bitrate=8612.4kbits/s speed=0.628x    
executeCommand> ErrorStream: frame= 5241 fps= 30 q=25.0 size=  115712kB time=00:01:49.78 bitrate=8634.6kbits/s speed=0.629x    
executeCommand> ErrorStream: frame= 5256 fps= 30 q=25.0 size=  115968kB time=00:01:50.05 bitrate=8631.9kbits/s speed=0.628x    
executeCommand> ErrorStream: frame= 5274 fps= 30 q=25.0 size=  116224kB time=00:01:50.42 bitrate=8622.5kbits/s speed=0.628x    
executeCommand> ErrorStream: frame= 5292 fps= 30 q=25.0 size=  116736kB time=00:01:50.80 bitrate=8630.5kbits/s speed=0.629x    
executeCommand> ErrorStream: frame= 5304 fps= 30 q=25.0 size=  116992kB time=00:01:51.06 bitrate=8629.5kbits/s speed=0.628x    
executeCommand> ErrorStream: frame= 5321 fps= 30 q=25.0 size=  117248kB time=00:01:51.40 bitrate=8621.8kbits/s speed=0.627x    
executeCommand> ErrorStream: frame= 5338 fps= 30 q=25.0 size=  117760kB time=00:01:51.78 bitrate=8629.7kbits/s speed=0.628x    
executeCommand> ErrorStream: frame= 5353 fps= 30 q=25.0 size=  118016kB time=00:01:52.10 bitrate=8623.8kbits/s speed=0.628x    
executeCommand> ErrorStream: frame= 5369 fps= 30 q=25.0 size=  118272kB time=00:01:52.40 bitrate=8619.6kbits/s speed=0.627x    
executeCommand> ErrorStream: frame= 5386 fps= 30 q=25.0 size=  118784kB time=00:01:52.78 bitrate=8627.4kbits/s speed=0.627x    
executeCommand> ErrorStream: frame= 5404 fps= 30 q=25.0 size=  119040kB time=00:01:53.13 bitrate=8619.9kbits/s speed=0.627x    
executeCommand> ErrorStream: frame= 5424 fps= 30 q=25.0 size=  119552kB time=00:01:53.57 bitrate=8622.8kbits/s speed=0.627x    
executeCommand> ErrorStream: frame= 5436 fps= 30 q=25.0 size=  119808kB time=00:01:53.81 bitrate=8623.5kbits/s speed=0.627x    
executeCommand> ErrorStream: frame= 5453 fps= 30 q=25.0 size=  120064kB time=00:01:54.13 bitrate=8617.7kbits/s speed=0.627x    
executeCommand> ErrorStream: frame= 5469 fps= 30 q=25.0 size=  120576kB time=00:01:54.51 bitrate=8625.4kbits/s speed=0.627x    
executeCommand> ErrorStream: frame= 5486 fps= 30 q=25.0 size=  121088kB time=00:01:54.92 bitrate=8631.5kbits/s speed=0.627x    
executeCommand> ErrorStream: frame= 5499 fps= 30 q=25.0 size=  121344kB time=00:01:55.11 bitrate=8635.3kbits/s speed=0.627x    
executeCommand> ErrorStream: frame= 5514 fps= 30 q=25.0 size=  121856kB time=00:01:55.43 bitrate=8647.7kbits/s speed=0.626x    
executeCommand> ErrorStream: frame= 5531 fps= 30 q=25.0 size=  122112kB time=00:01:55.79 bitrate=8638.7kbits/s speed=0.626x    
executeCommand> ErrorStream: frame= 5547 fps= 30 q=25.0 size=  122624kB time=00:01:56.11 bitrate=8651.0kbits/s speed=0.626x    
executeCommand> ErrorStream: frame= 5562 fps= 30 q=25.0 size=  122880kB time=00:01:56.43 bitrate=8645.3kbits/s speed=0.626x    
executeCommand> ErrorStream: frame= 5579 fps= 30 q=25.0 size=  123392kB time=00:01:56.77 bitrate=8655.9kbits/s speed=0.626x    
executeCommand> ErrorStream: frame= 5595 fps= 30 q=25.0 size=  123904kB time=00:01:57.09 bitrate=8668.1kbits/s speed=0.626x    
executeCommand> ErrorStream: frame= 5610 fps= 30 q=25.0 size=  124160kB time=00:01:57.41 bitrate=8662.3kbits/s speed=0.625x    
executeCommand> ErrorStream: frame= 5627 fps= 30 q=25.0 size=  124672kB time=00:01:57.78 bitrate=8671.3kbits/s speed=0.625x    
executeCommand> ErrorStream: frame= 5643 fps= 30 q=25.0 size=  124928kB time=00:01:58.12 bitrate=8664.0kbits/s speed=0.626x    
executeCommand> ErrorStream: frame= 5659 fps= 30 q=25.0 size=  125440kB time=00:01:58.42 bitrate=8677.5kbits/s speed=0.625x    
executeCommand> ErrorStream: frame= 5674 fps= 30 q=25.0 size=  125696kB time=00:01:58.76 bitrate=8670.3kbits/s speed=0.625x    
executeCommand> ErrorStream: frame= 5691 fps= 30 q=25.0 size=  126208kB time=00:01:59.12 bitrate=8679.1kbits/s speed=0.625x    
executeCommand> ErrorStream: frame= 5707 fps= 30 q=25.0 size=  126464kB time=00:01:59.50 bitrate=8668.7kbits/s speed=0.625x    
executeCommand> ErrorStream: frame= 5723 fps= 30 q=25.0 size=  126976kB time=00:01:59.78 bitrate=8683.7kbits/s speed=0.625x    
executeCommand> ErrorStream: frame= 5741 fps= 30 q=25.0 size=  127488kB time=00:02:00.17 bitrate=8690.8kbits/s speed=0.624x    
executeCommand> ErrorStream: frame= 5758 fps= 30 q=25.0 size=  128000kB time=00:02:00.49 bitrate=8702.6kbits/s speed=0.624x    
executeCommand> ErrorStream: frame= 5769 fps= 30 q=25.0 size=  128256kB time=00:02:00.78 bitrate=8698.4kbits/s speed=0.624x    
executeCommand> ErrorStream: frame= 5784 fps= 30 q=25.0 size=  128768kB time=00:02:01.17 bitrate=8705.4kbits/s speed=0.625x    
executeCommand> ErrorStream: frame= 5802 fps= 30 q=25.0 size=  129024kB time=00:02:01.42 bitrate=8704.4kbits/s speed=0.624x    
executeCommand> ErrorStream: frame= 5819 fps= 30 q=25.0 size=  129536kB time=00:02:01.77 bitrate=8714.4kbits/s speed=0.624x    
executeCommand> ErrorStream: frame= 5836 fps= 30 q=25.0 size=  129792kB time=00:02:02.15 bitrate=8704.2kbits/s speed=0.624x    
executeCommand> ErrorStream: frame= 5850 fps= 30 q=25.0 size=  130048kB time=00:02:02.45 bitrate=8700.1kbits/s speed=0.624x    
executeCommand> ErrorStream: frame= 5867 fps= 30 q=25.0 size=  130560kB time=00:02:02.79 bitrate=8710.1kbits/s speed=0.624x    
executeCommand> ErrorStream: frame= 5884 fps= 30 q=25.0 size=  131072kB time=00:02:03.09 bitrate=8723.0kbits/s speed=0.624x    
executeCommand> ErrorStream: frame= 5898 fps= 30 q=25.0 size=  131328kB time=00:02:03.43 bitrate=8715.9kbits/s speed=0.624x    
executeCommand> ErrorStream: frame= 5915 fps= 30 q=25.0 size=  131584kB time=00:02:03.79 bitrate=8707.3kbits/s speed=0.624x    
executeCommand> ErrorStream: frame= 5932 fps= 30 q=25.0 size=  132096kB time=00:02:04.18 bitrate=8714.1kbits/s speed=0.625x    
executeCommand> ErrorStream: frame= 5946 fps= 30 q=25.0 size=  132352kB time=00:02:04.43 bitrate=8713.0kbits/s speed=0.624x    
executeCommand> ErrorStream: frame= 5966 fps= 30 q=25.0 size=  132864kB time=00:02:04.88 bitrate=8715.4kbits/s speed=0.625x    
executeCommand> ErrorStream: frame= 5982 fps= 30 q=25.0 size=  133120kB time=00:02:05.20 bitrate=8709.8kbits/s speed=0.624x    
executeCommand> ErrorStream: frame= 6000 fps= 30 q=25.0 size=  133632kB time=00:02:05.58 bitrate=8716.6kbits/s speed=0.624x    
executeCommand> ErrorStream: frame= 6016 fps= 30 q=22.0 size=  133888kB time=00:02:05.97 bitrate=8706.7kbits/s speed=0.624x    
executeCommand> ErrorStream: frame= 6035 fps= 30 q=25.0 size=  134400kB time=00:02:06.31 bitrate=8716.4kbits/s speed=0.624x    
executeCommand> ErrorStream: frame= 6052 fps= 30 q=25.0 size=  134912kB time=00:02:06.63 bitrate=8727.5kbits/s speed=0.624x    
executeCommand> ErrorStream: frame= 6069 fps= 30 q=25.0 size=  135168kB time=00:02:06.99 bitrate=8719.1kbits/s speed=0.624x    
executeCommand> ErrorStream: frame= 6089 fps= 30 q=25.0 size=  135680kB time=00:02:07.40 bitrate=8724.2kbits/s speed=0.625x    
executeCommand> ErrorStream: frame= 6105 fps= 30 q=25.0 size=  135936kB time=00:02:07.78 bitrate=8714.4kbits/s speed=0.625x    
executeCommand> ErrorStream: frame= 6123 fps= 30 q=25.0 size=  136448kB time=00:02:08.17 bitrate=8721.0kbits/s speed=0.625x    
executeCommand> ErrorStream: frame= 6141 fps= 30 q=25.0 size=  136704kB time=00:02:08.49 bitrate=8715.6kbits/s speed=0.625x    
executeCommand> ErrorStream: frame= 6159 fps= 30 q=25.0 size=  136960kB time=00:02:08.87 bitrate=8706.0kbits/s speed=0.625x    
executeCommand> ErrorStream: frame= 6174 fps= 30 q=25.0 size=  137472kB time=00:02:09.19 bitrate=8716.9kbits/s speed=0.625x    
executeCommand> ErrorStream: frame= 6189 fps= 30 q=25.0 size=  137728kB time=00:02:09.51 bitrate=8711.5kbits/s speed=0.625x    
executeCommand> ErrorStream: frame= 6206 fps= 30 q=25.0 size=  137984kB time=00:02:09.89 bitrate=8701.9kbits/s speed=0.625x    
executeCommand> ErrorStream: frame= 6222 fps= 30 q=25.0 size=  138496kB time=00:02:10.19 bitrate=8714.2kbits/s speed=0.625x    
executeCommand> ErrorStream: frame= 6237 fps= 30 q=25.0 size=  138752kB time=00:02:10.51 bitrate=8708.9kbits/s speed=0.625x    
executeCommand> ErrorStream: frame= 6252 fps= 30 q=25.0 size=  139264kB time=00:02:10.83 bitrate=8719.6kbits/s speed=0.625x    
executeCommand> ErrorStream: frame= 6266 fps= 30 q=22.0 size=  139520kB time=00:02:11.17 bitrate=8712.9kbits/s speed=0.625x    
executeCommand> ErrorStream: frame= 6285 fps= 30 q=25.0 size=  140032kB time=00:02:11.47 bitrate=8725.0kbits/s speed=0.624x    
executeCommand> ErrorStream: frame= 6303 fps= 30 q=25.0 size=  140544kB time=00:02:11.86 bitrate=8731.4kbits/s speed=0.625x    
executeCommand> ErrorStream: frame= 6318 fps= 30 q=25.0 size=  140800kB time=00:02:12.26 bitrate=8720.5kbits/s speed=0.625x    
executeCommand> ErrorStream: frame= 6334 fps= 30 q=25.0 size=  141312kB time=00:02:12.52 bitrate=8735.3kbits/s speed=0.624x    
executeCommand> ErrorStream: frame= 6352 fps= 30 q=25.0 size=  141568kB time=00:02:12.88 bitrate=8727.3kbits/s speed=0.625x    
executeCommand> ErrorStream: frame= 6366 fps= 30 q=25.0 size=  142080kB time=00:02:13.20 bitrate=8737.8kbits/s speed=0.624x    
executeCommand> ErrorStream: frame= 6382 fps= 30 q=25.0 size=  142336kB time=00:02:13.54 bitrate=8731.2kbits/s speed=0.625x    
executeCommand> ErrorStream: frame= 6400 fps= 30 q=25.0 size=  142848kB time=00:02:13.90 bitrate=8738.8kbits/s speed=0.625x    
executeCommand> ErrorStream: frame= 6414 fps= 30 q=25.0 size=  143360kB time=00:02:14.22 bitrate=8749.2kbits/s speed=0.625x    
executeCommand> ErrorStream: frame= 6431 fps= 30 q=25.0 size=  143616kB time=00:02:14.61 bitrate=8739.9kbits/s speed=0.625x    
executeCommand> ErrorStream: frame= 6447 fps= 30 q=25.0 size=  144128kB time=00:02:14.89 bitrate=8753.0kbits/s speed=0.624x    
executeCommand> ErrorStream: frame= 6462 fps= 30 q=25.0 size=  144640kB time=00:02:15.21 bitrate=8763.3kbits/s speed=0.624x    
executeCommand> ErrorStream: frame= 6480 fps= 30 q=25.0 size=  144896kB time=00:02:15.59 bitrate=8753.9kbits/s speed=0.625x    
executeCommand> ErrorStream: frame= 6495 fps= 30 q=25.0 size=  145408kB time=00:02:15.89 bitrate=8765.6kbits/s speed=0.625x    
executeCommand> ErrorStream: frame= 6510 fps= 30 q=25.0 size=  145664kB time=00:02:16.29 bitrate=8754.9kbits/s speed=0.625x    
executeCommand> ErrorStream: frame= 6527 fps= 30 q=25.0 size=  146176kB time=00:02:16.53 bitrate=8770.6kbits/s speed=0.624x    
executeCommand> ErrorStream: frame= 6544 fps= 30 q=25.0 size=  146688kB time=00:02:16.91 bitrate=8776.6kbits/s speed=0.625x    
executeCommand> ErrorStream: frame= 6558 fps= 30 q=25.0 size=  146944kB time=00:02:17.23 bitrate=8771.4kbits/s speed=0.624x    
executeCommand> ErrorStream: frame= 6576 fps= 30 q=25.0 size=  147456kB time=00:02:17.57 bitrate=8780.1kbits/s speed=0.624x    
executeCommand> ErrorStream: frame= 6592 fps= 30 q=25.0 size=  147968kB time=00:02:17.89 bitrate=8790.2kbits/s speed=0.624x    
executeCommand> ErrorStream: frame= 6606 fps= 30 q=25.0 size=  148224kB time=00:02:18.19 bitrate=8786.4kbits/s speed=0.624x    
executeCommand> ErrorStream: frame= 6627 fps= 30 q=25.0 size=  148736kB time=00:02:18.60 bitrate=8790.9kbits/s speed=0.624x    
executeCommand> ErrorStream: frame= 6642 fps= 30 q=25.0 size=  148992kB time=00:02:18.92 bitrate=8785.8kbits/s speed=0.624x    
executeCommand> ErrorStream: frame= 6664 fps= 30 q=25.0 size=  149760kB time=00:02:19.41 bitrate=8800.0kbits/s speed=0.624x    
executeCommand> ErrorStream: frame= 6681 fps= 30 q=25.0 size=  150016kB time=00:02:19.79 bitrate=8790.8kbits/s speed=0.624x    
executeCommand> ErrorStream: frame= 6696 fps= 30 q=25.0 size=  150272kB time=00:02:20.11 bitrate=8785.7kbits/s speed=0.624x    
executeCommand> ErrorStream: frame= 6714 fps= 30 q=25.0 size=  150784kB time=00:02:20.43 bitrate=8795.5kbits/s speed=0.624x    
executeCommand> ErrorStream: frame= 6733 fps= 30 q=25.0 size=  151296kB time=00:02:20.82 bitrate=8801.3kbits/s speed=0.624x    
executeCommand> ErrorStream: frame= 6750 fps= 30 q=25.0 size=  151552kB time=00:02:21.20 bitrate=8792.3kbits/s speed=0.625x    
executeCommand> ErrorStream: frame= 6768 fps= 30 q=25.0 size=  152064kB time=00:02:21.54 bitrate=8800.7kbits/s speed=0.624x    
executeCommand> ErrorStream: frame= 6786 fps= 30 q=25.0 size=  152320kB time=00:02:21.90 bitrate=8793.0kbits/s speed=0.624x    
executeCommand> ErrorStream: frame= 6804 fps= 30 q=25.0 size=  152832kB time=00:02:22.35 bitrate=8794.8kbits/s speed=0.624x    
executeCommand> ErrorStream: frame= 6820 fps= 30 q=25.0 size=  153344kB time=00:02:22.69 bitrate=8803.1kbits/s speed=0.624x    
executeCommand> ErrorStream: frame= 6840 fps= 30 q=25.0 size=  153856kB time=00:02:23.08 bitrate=8808.8kbits/s speed=0.625x    
executeCommand> ErrorStream: frame= 6852 fps= 30 q=25.0 size=  154112kB time=00:02:23.38 bitrate=8805.1kbits/s speed=0.624x    
executeCommand> ErrorStream: frame= 6870 fps= 30 q=25.0 size=  154368kB time=00:02:23.72 bitrate=8798.8kbits/s speed=0.624x    
executeCommand> ErrorStream: frame= 6886 fps= 30 q=25.0 size=  154880kB time=00:02:24.10 bitrate=8804.4kbits/s speed=0.625x    
executeCommand> ErrorStream: frame= 6897 fps= 30 q=25.0 size=  155136kB time=00:02:24.34 bitrate=8804.6kbits/s speed=0.624x    
executeCommand> ErrorStream: frame= 6915 fps= 30 q=25.0 size=  155648kB time=00:02:24.61 bitrate=8816.8kbits/s speed=0.624x    
executeCommand> ErrorStream: frame= 6930 fps= 30 q=25.0 size=  155904kB time=00:02:24.93 bitrate=8811.8kbits/s speed=0.624x    
executeCommand> ErrorStream: frame= 6947 fps= 30 q=25.0 size=  156416kB time=00:02:25.32 bitrate=8817.3kbits/s speed=0.624x    
executeCommand> ErrorStream: frame= 6964 fps= 30 q=25.0 size=  156672kB time=00:02:25.62 bitrate=8813.7kbits/s speed=0.624x    
executeCommand> ErrorStream: frame= 6978 fps= 30 q=25.0 size=  157184kB time=00:02:25.94 bitrate=8823.1kbits/s speed=0.624x    
executeCommand> ErrorStream: frame= 6995 fps= 30 q=25.0 size=  157440kB time=00:02:26.32 bitrate=8814.3kbits/s speed=0.624x    
executeCommand> ErrorStream: frame= 7011 fps= 30 q=25.0 size=  157952kB time=00:02:26.60 bitrate=8826.2kbits/s speed=0.624x    
executeCommand> ErrorStream: frame= 7027 fps= 30 q=25.0 size=  158464kB time=00:02:26.98 bitrate=8831.7kbits/s speed=0.624x    
executeCommand> ErrorStream: frame= 7043 fps= 30 q=25.0 size=  158720kB time=00:02:27.34 bitrate=8824.2kbits/s speed=0.624x    
executeCommand> ErrorStream: frame= 7060 fps= 30 q=25.0 size=  159232kB time=00:02:27.73 bitrate=8829.6kbits/s speed=0.625x    
executeCommand> ErrorStream: frame= 7077 fps= 30 q=25.0 size=  159488kB time=00:02:28.01 bitrate=8827.2kbits/s speed=0.624x    
executeCommand> ErrorStream: frame= 7091 fps= 30 q=25.